<?xml version="1.0" encoding="UTF-8" standalone="no"?>
<!-- Generator: Adobe Illustrator 18.1.1, SVG Export Plug-In . SVG Version: 6.00 Build 0)  -->

<svg
   xmlns:dc="http://purl.org/dc/elements/1.1/"
   xmlns:cc="http://creativecommons.org/ns#"
   xmlns:rdf="http://www.w3.org/1999/02/22-rdf-syntax-ns#"
   xmlns:svg="http://www.w3.org/2000/svg"
   xmlns="http://www.w3.org/2000/svg"
   xmlns:sodipodi="http://sodipodi.sourceforge.net/DTD/sodipodi-0.dtd"
   xmlns:inkscape="http://www.inkscape.org/namespaces/inkscape"
   version="1.1"
   id="Capa_1"
   x="0px"
   y="0px"
   viewBox="0 0 286.375 286.375"
   style="enable-background:new 0 0 286.375 286.375;"
   xml:space="preserve"
   inkscape:version="0.91 r13725"
   sodipodi:docname="radio-disconnected.svg"><metadata
     id="metadata3468"><rdf:RDF><cc:Work
         rdf:about=""><dc:format>image/svg+xml</dc:format><dc:type
           rdf:resource="http://purl.org/dc/dcmitype/StillImage" /><dc:title></dc:title></cc:Work></rdf:RDF></metadata><defs
     id="defs3466" /><sodipodi:namedview
     pagecolor="#ffffff"
     bordercolor="#666666"
     borderopacity="1"
     objecttolerance="10"
     gridtolerance="10"
     guidetolerance="10"
     inkscape:pageopacity="0"
     inkscape:pageshadow="2"
     inkscape:window-width="1440"
     inkscape:window-height="855"
     id="namedview3464"
     showgrid="false"
     inkscape:zoom="0.72806635"
     inkscape:cx="125.26892"
     inkscape:cy="64.261913"
     inkscape:window-x="0"
     inkscape:window-y="0"
     inkscape:window-maximized="1"
     inkscape:current-layer="Capa_1" /><g
     id="Radio__x2F__Podcast"><path
       style="fill-rule:evenodd;clip-rule:evenodd;"
       d="M156.406,118.288c13.217-5.263,22.579-18.147,22.579-33.244   c0-19.774-16.037-35.797-35.797-35.797S107.39,65.271,107.39,85.044c0,15.101,9.367,27.988,22.589,33.248L79.181,260.078   c-2.508,7.018-7.815,21.753,13.528,21.753l-0.036,0.043H193.71l-0.026-0.043c21.334,0,16.028-14.735,13.519-21.753L156.406,118.288   z M261.32,4.501l-22.156,15.158c12.831,18.698,20.363,41.312,20.363,65.7c0,24.391-7.533,47.01-20.363,65.707l22.146,15.163   c15.783-23.016,25.065-50.846,25.065-80.87C286.375,55.338,277.103,27.512,261.32,4.501z M25.056,4.501   C9.273,27.512,0,55.338,0,85.359c0,30.019,9.273,57.846,25.056,80.857l22.155-15.158c-12.83-18.698-20.363-41.311-20.363-65.699   s7.533-47.001,20.363-65.7L25.056,4.501z M80.543,85.044c0-13.131,4.055-25.309,10.959-35.377L69.356,34.508   C59.49,48.889,53.695,66.285,53.695,85.044c0,18.763,5.795,36.155,15.661,50.536l22.146-15.159   C84.598,110.353,80.543,98.175,80.543,85.044z M194.872,49.667c6.905,10.068,10.959,22.246,10.959,35.377   s-4.055,25.304-10.959,35.373l22.146,15.163c9.867-14.384,15.661-31.777,15.661-50.536c0-18.76-5.794-36.155-15.661-50.536   L194.872,49.667z"
       id="path3432" /></g><g
     id="g3434" /><g
     id="g3436" /><g
     id="g3438" /><g
     id="g3440" /><g
     id="g3442" /><g
     id="g3444" /><g
     id="g3446" /><g
     id="g3448" /><g
     id="g3450" /><g
     id="g3452" /><g
     id="g3454" /><g
     id="g3456" /><g
     id="g3458" /><g
     id="g3460" /><g
     id="g3462" /><path
     style="fill:#000000;fill-opacity:1;stroke:none"
     d="m 83.123545,279.538 c -4.155276,-1.70487 -6.330483,-6.36087 -5.367268,-11.48858 0.446244,-2.37558 12.555282,-37.07725 26.908973,-77.11481 14.99854,-41.83626 25.4808,-73.00118 24.64725,-73.27903 -4.62543,-1.54183 -13.5147,-10.23596 -16.92015,-16.5487 -4.57891,-8.487992 -5.37344,-20.750552 -1.8842,-29.080014 7.62697,-18.206974 29.43315,-26.849442 47.04804,-18.646601 18.4388,8.586514 25.83318,30.051084 16.38618,47.566185 -3.451,6.39829 -12.23346,15.06272 -16.93674,16.70913 -0.75961,0.26591 10.64019,34.02794 25.33288,75.02674 14.69269,40.99881 26.71398,76.00612 26.71398,77.79404 0,1.78791 -1.18112,4.70988 -2.62472,6.49329 l -2.62471,3.24254 -58.83946,0.27846 C 112.60189,280.6438 84.77387,280.21511 83.123545,279.538 Z"
     id="path3357"
     inkscape:connector-curvature="0" /><path
     style="fill:#ff0000;fill-opacity:1;stroke:none"
     d="m 83.123545,279.51585 c -3.368508,-1.3572 -5.927168,-5.36702 -5.927168,-9.28881 0,-1.43631 11.770298,-35.56694 26.156213,-75.84585 14.38592,-40.27889 25.97484,-73.99469 25.75315,-74.92398 -0.22169,-0.92929 -3.18441,-3.79129 -6.58382,-6.35999 -8.87854,-6.70888 -14.07965,-16.959204 -14.07389,-27.736768 0.005,-9.893035 2.36985,-16.252272 8.74144,-23.509114 13.62306,-15.515811 38.09551,-15.391195 52.20909,0.265853 6.1051,6.772745 8.63827,13.818415 8.53705,23.744578 -0.12559,12.314175 -6.20901,22.428271 -18.21859,30.289581 l -3.25825,2.13281 2.44112,7.4817 c 1.34262,4.11493 13.1762,37.62986 26.29686,74.47761 13.12066,36.84776 23.85574,68.55222 23.85574,70.45436 0,1.90217 -1.51709,4.97555 -3.37132,6.82978 l -3.37132,3.37133 -58.09286,-0.0871 c -31.95107,-0.0479 -59.44312,-0.63109 -61.093445,-1.29602 z"
     id="path3359"
     inkscape:connector-curvature="0" /><path
     style="fill:#ff0000;fill-opacity:1;stroke:none"
     d="m 206.42818,127.55514 c -5.27992,-3.50854 -9.79592,-6.53746 -10.03557,-6.73093 -0.23964,-0.19347 1.08838,-3.35943 2.95117,-7.03547 4.91482,-9.69893 6.58343,-17.150253 6.55677,-29.279855 -0.0241,-10.953308 -3.40127,-24.172901 -7.94832,-31.112569 -1.20051,-1.832219 -1.94451,-3.518265 -1.65333,-3.746769 5.53926,-4.346851 19.10507,-13.233821 20.20122,-13.233821 2.4538,0 11.1393,19.30461 13.2862,29.530275 2.55924,12.18959 2.57224,26.230596 0.0354,38.203339 -1.93218,9.11893 -10.81369,29.78497 -12.8005,29.78497 -0.54624,0 -5.3131,-2.87063 -10.59301,-6.37917 z"
     id="path4161"
     inkscape:connector-curvature="0" /><path
     style="fill:#ff0000;fill-opacity:1;stroke:none"
     d="m 249.6509,157.51318 -8.98498,-6.4101 6.47146,-12.72424 c 17.86056,-35.11755 16.48041,-81.125838 -3.37723,-112.582379 l -3.58535,-5.679556 9.03932,-6.450322 c 4.97162,-3.547677 9.95662,-6.5247542 11.07777,-6.6157272 2.68957,-0.2182388 13.11497,18.8565692 17.55873,32.1262612 12.90997,38.551062 9.36016,79.004823 -10.06254,114.672963 -2.87952,5.28798 -6.11674,9.71771 -7.19384,9.84385 -1.0771,0.12609 -6.0016,-2.65519 -10.94334,-6.18075 z"
     id="path4163"
     inkscape:connector-curvature="0" /><path
     style="fill:#ff0000;fill-opacity:1;stroke:none"
     d="M 63.788506,124.32472 C 51.275565,99.312824 51.653376,69.566699 64.813858,43.595736 c 2.001114,-3.949006 4.216438,-7.18001 4.922945,-7.18001 0.706507,0 5.486181,2.892638 10.621497,6.428085 5.135315,3.535446 9.450952,6.482307 9.590305,6.54858 0.139351,0.06627 -1.525095,3.825978 -3.698769,8.354902 -4.731178,9.857572 -7.271961,24.218226 -6.019664,34.023502 0.969737,7.592883 5.193741,20.303045 8.3785,25.211185 1.773289,2.73287 1.569775,3.22533 -2.615772,6.32964 -7.127152,5.286 -15.384988,10.62269 -16.437257,10.62269 -0.52781,0 -3.123023,-4.32432 -5.767137,-9.60959 z"
     id="path4165"
     inkscape:connector-curvature="0" /><path
     style="fill:#ff0000;fill-opacity:1;stroke:none"
     d="M 20.145714,156.86167 C 7.6624913,135.60481 2.4358612,117.03851 1.4738346,90.534477 0.70503641,69.353922 2.5005463,56.525227 8.7290948,38.696547 13.228366,25.817773 23.529831,6.8533577 25.932831,7.0254401 c 1.07517,0.076994 6.132245,3.0644019 11.237945,6.6386839 l 9.283091,6.498693 -2.832148,3.977386 c -4.602316,6.463356 -10.629922,20.836256 -13.882265,33.102432 -2.401894,9.058719 -3.01483,15.036425 -2.934516,28.619134 0.125373,21.204181 3.103676,33.732061 12.44298,52.340021 l 6.622668,13.19524 -7.617949,5.05508 c -4.189873,2.78029 -8.854101,5.92359 -10.364953,6.98513 -2.571533,1.80676 -3.066064,1.38673 -7.74197,-6.57557 z"
     id="path4167"
     inkscape:connector-curvature="0" /></svg>