<?xml version="1.0" encoding="iso-8859-1"?>
<!-- Generator: Adobe Illustrator 16.0.0, SVG Export Plug-In . SVG Version: 6.00 Build 0)  -->
<!DOCTYPE svg PUBLIC "-//W3C//DTD SVG 1.1//EN" "http://www.w3.org/Graphics/SVG/1.1/DTD/svg11.dtd">
<svg version="1.1" id="Capa_1" xmlns="http://www.w3.org/2000/svg" xmlns:xlink="http://www.w3.org/1999/xlink" x="0px" y="0px"
	 width="70.111px" height="70.111px" viewBox="0 0 70.111 70.111" style="enable-background:new 0 0 70.111 70.111;"
	 xml:space="preserve">
<g>
	<path d="M49.312,25.22H36.27V14.749h10.784C48.44,18.13,49.202,21.65,49.312,25.22z M49.289,27.645H36.27v10.473h10.514
		C48.263,34.715,49.106,31.195,49.289,27.645z M33.841,14.749H23.056c-1.387,3.384-2.146,6.907-2.258,10.471h13.043V14.749z
		 M33.841,12.321V0.039c-4.224,3.819-7.473,7.947-9.668,12.282H33.841z M57.649,12.321C53.688,5.984,47.291,1.619,39.982,0.252
		c3.787,3.798,6.692,7.855,8.654,12.069H57.649z M51.739,25.22h9.927c-0.169-3.675-1.062-7.195-2.666-10.471h-9.344
		C50.937,18.142,51.639,21.665,51.739,25.22z M49.417,38.117H59c1.604-3.278,2.497-6.799,2.666-10.473h-9.947
		C51.548,31.195,50.771,34.715,49.417,38.117z M33.841,38.117V27.645H20.818c0.188,3.55,1.029,7.07,2.507,10.473H33.841z M36.27,0
		v12.321h9.67C43.724,7.951,40.443,3.796,36.27,0z M30.127,0.252c-7.309,1.367-13.702,5.732-17.666,12.069h9.011
		C23.435,8.104,26.343,4.052,30.127,0.252z M20.695,38.117c-1.357-3.402-2.13-6.922-2.3-10.473H8.448
		c0.165,3.673,1.061,7.194,2.663,10.473H20.695z M63.952,45.562v24.549H6.159V45.562h10.39c-1.537-1.497-2.922-3.162-4.087-5.019
		h9.31c0.834,1.706,1.864,3.376,3,5.019h2.983c-1.233-1.638-2.348-3.308-3.259-5.019h9.348v5.019h2.427v-5.019h9.347
		c-0.91,1.711-2.026,3.381-3.258,5.019h2.979c1.136-1.643,2.164-3.312,3.001-5.019h9.308c-1.166,1.861-2.551,3.526-4.088,5.019
		H63.952z M23.93,62.999h-7.964V49.823h-1.678H12.62v16.022h11.312v-1.433L23.93,62.999L23.93,62.999z M28.655,49.823h-1.677h-1.667
		v16.022h1.679h1.665V49.823z M43.874,49.823h-1.729h-1.722L36.915,62.05l-3.52-12.227h-1.778H29.84l5.428,16.022h1.591h1.596
		L43.874,49.823z M57.492,62.999h-8.814v-4.175h7.833v-1.382v-1.374h-7.833V52.67h8.444v-1.433v-1.412H45.334v16.021h12.162v-1.433
		v-1.412h-0.004V62.999z M20.454,14.749h-9.343c-1.602,3.276-2.499,6.796-2.663,10.471h9.925
		C18.473,21.665,19.175,18.142,20.454,14.749z"/>
</g>
<g>
</g>
<g>
</g>
<g>
</g>
<g>
</g>
<g>
</g>
<g>
</g>
<g>
</g>
<g>
</g>
<g>
</g>
<g>
</g>
<g>
</g>
<g>
</g>
<g>
</g>
<g>
</g>
<g>
</g>
</svg>
