<svg version="1.1" id="Layer_1" xmlns="http://www.w3.org/2000/svg" xmlns:xlink="http://www.w3.org/1999/xlink" x="0px" y="0px"
	 width="100%" viewBox="0 0 608 860" enable-background="new 0 0 608 860" xml:space="preserve">
<path fill="#025501" opacity="1.000000" stroke="none" 
	d="
M609.000000,2.000000 
	C609.000000,286.696045 609.000000,571.392090 608.536743,856.624084 
	C596.576111,857.186279 585.078735,857.236755 573.581360,857.234741 
	C522.924805,857.226013 472.268280,857.190002 421.611725,857.187256 
	C370.788055,857.184448 319.964386,857.213257 269.140717,857.220947 
	C218.317642,857.228638 167.494553,857.251709 116.671509,857.221802 
	C79.179787,857.199768 41.688122,857.103271 4.204105,856.567749 
	C4.211775,571.538208 4.211775,286.980774 4.211775,2.157239 
	C7.235283,2.157239 9.392903,2.157239 11.550524,2.157239 
	C208.536835,2.157238 405.523163,2.157742 602.509460,2.150724 
	C604.672974,2.150647 606.836487,2.052413 609.000000,2.000000 
M59.068398,58.265099 
	C58.314396,60.877056 57.560394,63.489017 56.115482,66.025871 
	C50.072788,62.658638 44.030094,59.291401 37.823296,55.832722 
	C37.823296,77.417091 37.823296,98.380630 37.823296,120.084511 
	C45.436344,115.796516 52.215389,111.978271 59.043812,109.201729 
	C59.057777,219.191467 59.077549,329.181183 59.084126,439.170929 
	C59.091152,556.663208 59.085720,674.155518 59.085716,791.647827 
	C59.085716,802.491455 59.085724,802.491455 69.507080,803.596436 
	C65.224724,811.477356 60.942360,819.358276 56.882950,826.828857 
	C78.417099,826.828857 99.333015,826.828857 120.981384,826.828857 
	C115.858856,817.965759 111.385269,810.225464 108.000374,802.475586 
	C160.536606,802.477295 213.072845,802.478943 265.783722,803.465515 
	C265.783722,808.043884 265.783722,812.622192 265.783722,817.184814 
	C294.280670,817.184814 322.020630,817.184814 350.358093,817.184814 
	C350.358093,812.084839 350.358093,807.280640 351.248260,802.460388 
	C419.537811,802.460388 487.827332,802.460388 556.454102,802.460388 
	C556.454102,799.683533 556.454102,797.699097 557.170227,795.990601 
	C564.841736,800.418823 572.513184,804.847046 581.112427,809.810791 
	C581.112427,787.266296 581.112427,765.830811 581.112427,743.903137 
	C572.999878,748.258728 565.039062,752.532776 557.052246,755.896851 
	C556.878845,748.641846 556.705505,741.386841 556.450012,733.202209 
	C556.445007,705.597595 556.436218,677.992981 556.435669,650.388367 
	C556.433838,558.922363 556.479065,467.456360 556.418762,375.990417 
	C556.381470,319.349518 556.103333,262.708771 556.087891,206.067902 
	C556.076416,163.807587 556.337769,121.547264 556.413696,79.286827 
	C556.426392,72.203079 556.112732,65.118759 555.539062,57.286942 
	C551.649780,57.146023 547.760559,57.005108 543.971558,56.162968 
	C548.413696,47.763577 552.855835,39.364189 557.673157,30.255314 
	C535.123535,30.893549 513.691345,31.500154 491.588379,32.125744 
	C496.758392,40.911808 501.454956,48.893227 505.058746,56.920364 
	C453.585663,56.921326 402.112610,56.922291 350.462738,55.888405 
	C350.462738,51.456089 350.462738,47.023777 350.462738,42.336212 
	C321.933075,42.336212 293.989655,42.336212 265.427795,42.336212 
	C265.427795,47.392281 265.427795,52.165493 265.149261,56.959591 
	C265.149261,56.959591 264.978302,57.183479 264.054565,57.033100 
	C197.503693,57.021534 130.952820,57.003201 64.401978,57.040241 
	C62.853092,57.041103 61.304550,57.665428 59.068398,58.265099 
z"/>
<path fill="#7A827A" opacity="1.000000" stroke="none" 
	d="
M4.196439,857.039917 
	C41.688122,857.103271 79.179787,857.199768 116.671509,857.221802 
	C167.494553,857.251709 218.317642,857.228638 269.140717,857.220947 
	C319.964386,857.213257 370.788055,857.184448 421.611725,857.187256 
	C472.268280,857.190002 522.924805,857.226013 573.581360,857.234741 
	C585.078735,857.236755 596.576111,857.186279 608.536743,857.080017 
	C609.000000,857.444458 609.000000,857.888916 608.540588,858.594727 
	C604.665588,858.870850 601.233093,858.694641 597.842957,858.995605 
	C596.513123,859.113647 595.278198,860.300171 594.000000,861.000000 
	C587.312378,861.000000 580.624695,861.000000 573.457336,860.565552 
	C568.991699,859.770447 565.005859,859.409790 560.560486,858.991577 
	C556.394165,858.971985 552.687317,859.010010 548.530762,858.965393 
	C544.727173,858.937866 541.373352,858.992981 537.560303,858.990906 
	C533.394165,858.971985 529.687134,859.010132 525.527466,858.963745 
	C521.389771,858.935547 517.704773,858.991882 513.560547,858.991089 
	C509.394318,858.971985 505.687408,859.010071 501.530792,858.965454 
	C497.727203,858.937866 494.373322,858.992981 490.560181,858.990967 
	C486.393890,858.972229 482.686920,859.010742 478.527405,858.964966 
	C474.389679,858.936523 470.704498,858.992310 466.562866,858.993103 
	C462.731110,858.974731 459.355896,859.011353 455.527954,858.963623 
	C451.390076,858.935608 447.704865,858.992065 443.560211,858.991150 
	C439.394012,858.971924 435.687256,859.010010 431.530792,858.965454 
	C427.727203,858.937927 424.373322,858.993042 420.560181,858.990967 
	C416.394012,858.972046 412.687134,859.010254 408.527710,858.963745 
	C404.389923,858.935303 400.704620,858.991699 396.562866,858.993042 
	C392.731689,858.973267 389.357025,859.008423 385.529602,858.958374 
	C381.390564,858.930115 377.704254,858.987000 373.558716,858.986084 
	C369.393707,858.966736 365.687958,859.005127 361.532410,858.960449 
	C357.727631,858.932739 354.372711,858.988098 350.558655,858.985901 
	C346.393677,858.966797 342.687836,859.005310 338.529419,858.958496 
	C334.390442,858.929993 330.704071,858.986755 326.561096,858.988037 
	C322.730469,858.969543 319.356384,859.006592 315.529480,858.958435 
	C311.390289,858.929688 307.703949,858.986145 303.558411,858.985352 
	C299.393585,858.966553 295.687927,859.005066 291.532410,858.960449 
	C287.727631,858.932678 284.372711,858.988098 280.558746,858.985901 
	C276.393829,858.966797 272.687927,859.005371 268.529327,858.958557 
	C264.390686,858.930969 260.704742,858.988647 256.562378,858.992065 
	C252.730835,858.974487 249.355728,859.011230 245.527863,858.963562 
	C241.389954,858.935547 237.704834,858.992004 233.560394,858.991211 
	C229.394272,858.971985 225.687424,859.010071 221.530853,858.965454 
	C217.727203,858.937866 214.373306,858.992981 210.560211,858.990967 
	C206.394119,858.972046 202.687195,859.010254 198.527618,858.963867 
	C194.389771,858.935486 190.704559,858.991760 186.562927,858.993164 
	C182.731201,858.974854 179.355927,859.011475 175.527863,858.963623 
	C171.389954,858.935547 167.704834,858.992004 163.560394,858.991150 
	C159.394287,858.971985 155.687454,859.010071 151.530945,858.965393 
	C147.727295,858.937805 144.373352,858.992920 140.560211,858.990967 
	C136.394119,858.971985 132.687195,859.010193 128.527618,858.963806 
	C124.389748,858.935486 120.704536,858.991760 116.562897,858.993164 
	C112.731201,858.974854 109.355934,859.011475 105.527893,858.963562 
	C101.389984,858.935486 97.704842,858.991943 93.560486,858.991211 
	C89.393753,858.973633 85.686226,859.013306 81.526093,858.968872 
	C77.389297,858.940735 73.705132,858.996643 69.564369,858.997803 
	C65.731537,858.979614 62.355289,859.016113 58.526314,858.968689 
	C54.389492,858.940857 50.705399,858.996887 46.561840,858.996094 
	C42.394581,858.977051 38.686787,859.014832 34.529335,858.970337 
	C30.726791,858.942932 27.373898,858.997742 23.561546,858.995911 
	C19.394291,858.977112 15.686497,859.015015 11.540697,858.969299 
	C7.735129,858.590454 4.367564,858.295227 1.000000,858.000000 
	C1.000000,573.833374 0.998453,289.666687 1.041259,5.500057 
	C1.041485,3.999990 1.666667,2.500017 2.430954,1.363024 
	C2.798319,2.462091 2.734730,3.198134 2.483329,4.273098 
	C2.421006,7.430105 2.546496,10.248191 2.699247,13.525155 
	C2.708356,18.300701 2.690204,22.617369 2.482425,27.279972 
	C2.419281,30.772621 2.545765,33.919334 2.699373,37.523323 
	C2.708349,41.965084 2.690201,45.949562 2.482425,50.279976 
	C2.419281,53.772625 2.545765,56.919334 2.699419,60.524944 
	C2.708323,65.300491 2.690058,69.617142 2.483836,74.272675 
	C2.421248,77.429802 2.546617,80.248047 2.699247,83.525162 
	C2.708357,88.300697 2.690205,92.617363 2.482425,97.279961 
	C2.419281,100.772614 2.545765,103.919342 2.699372,107.523338 
	C2.708441,111.965149 2.690387,115.949684 2.480432,120.289322 
	C2.423974,124.464859 2.559416,128.285294 2.715406,132.549744 
	C2.722222,135.960632 2.708490,138.927536 2.493446,142.252716 
	C2.426400,146.775909 2.560666,150.940811 2.715455,155.549713 
	C2.722253,158.960617 2.708529,161.927536 2.492907,165.254822 
	C2.425666,170.112030 2.560323,174.608856 2.715486,179.549713 
	C2.722248,182.960617 2.708503,185.927521 2.493446,189.252716 
	C2.426400,193.775909 2.560667,197.940811 2.715455,202.549713 
	C2.722253,205.960617 2.708528,208.927536 2.492907,212.254822 
	C2.425666,217.112030 2.560323,221.608856 2.715412,226.544693 
	C2.722164,229.620605 2.708484,232.257523 2.492907,235.254822 
	C2.425666,240.112030 2.560323,244.608856 2.715082,249.518707 
	C2.721823,251.585510 2.708462,253.239334 2.489309,255.256317 
	C2.183406,256.941162 1.995687,258.262787 1.995617,259.584442 
	C1.988086,402.304413 1.992085,545.024353 2.029151,687.744324 
	C2.029615,689.531555 2.463484,691.318604 2.715459,693.544739 
	C2.722181,696.620544 2.708497,699.257446 2.492924,702.254639 
	C2.425684,707.111938 2.560332,711.608887 2.715486,716.549744 
	C2.722250,719.960571 2.708509,722.927429 2.493481,726.252563 
	C2.426440,730.775879 2.560687,734.940796 2.715455,739.549744 
	C2.722255,742.960571 2.708534,745.927429 2.492924,749.254639 
	C2.425683,754.111938 2.560332,758.608887 2.715412,763.544739 
	C2.722167,766.620544 2.708491,769.257446 2.492924,772.254639 
	C2.425683,777.111938 2.560332,781.608887 2.715486,786.549744 
	C2.722250,789.960571 2.708509,792.927429 2.493480,796.252563 
	C2.426433,800.775879 2.560674,804.940796 2.715593,809.558167 
	C2.714864,813.651733 2.693457,817.292908 2.482418,821.280029 
	C2.419273,824.772583 2.545761,827.919312 2.699372,831.523315 
	C2.708348,835.965088 2.690199,839.949585 2.482419,844.280029 
	C2.419274,847.772583 2.545761,850.919312 2.704904,854.436157 
	C3.223853,855.550842 3.710147,856.295410 4.196439,857.039917 
z"/>
<path fill="#FF2B2B" opacity="1.000000" stroke="none" 
	d="
M4.204108,856.567749 
	C3.710147,856.295410 3.223853,855.550842 2.813989,853.985596 
	C2.817631,850.087952 2.744841,847.010986 2.672051,843.934082 
	C2.690199,839.949585 2.708348,835.965088 2.808458,831.072754 
	C2.817630,827.087952 2.744841,824.010986 2.672051,820.934082 
	C2.693457,817.292908 2.714864,813.651733 2.818835,809.094238 
	C2.832524,804.083435 2.763646,799.988831 2.694768,795.894287 
	C2.708509,792.927429 2.722250,789.960571 2.818757,786.084656 
	C2.832620,780.748474 2.763716,776.321411 2.694814,771.894287 
	C2.708491,769.257446 2.722167,766.620544 2.818684,763.079651 
	C2.832620,757.748474 2.763717,753.321411 2.694814,748.894287 
	C2.708534,745.927429 2.722255,742.960571 2.818692,739.085815 
	C2.832528,734.083435 2.763649,729.988831 2.694769,725.894287 
	C2.708509,722.927429 2.722250,719.960571 2.818758,716.084656 
	C2.832621,710.748474 2.763717,706.321411 2.694814,701.894287 
	C2.708497,699.257446 2.722181,696.620544 2.818979,693.076172 
	C2.933255,691.503174 2.991685,690.837708 2.991723,690.172180 
	C2.999771,546.403015 3.004533,402.633881 2.994822,258.864746 
	C2.994732,257.540894 2.799321,256.217010 2.695100,254.893143 
	C2.708462,253.239334 2.721823,251.585510 2.818354,249.053650 
	C2.832617,243.748535 2.763710,239.321487 2.694804,234.894440 
	C2.708484,232.257523 2.722164,229.620605 2.818684,226.079636 
	C2.832617,220.748535 2.763710,216.321487 2.694804,211.894440 
	C2.708528,208.927536 2.722253,205.960617 2.818695,202.085846 
	C2.832528,197.083466 2.763643,192.988937 2.694758,188.894424 
	C2.708503,185.927521 2.722248,182.960617 2.818758,179.084656 
	C2.832617,173.748535 2.763710,169.321487 2.694804,164.894440 
	C2.708529,161.927536 2.722253,158.960617 2.818695,155.085846 
	C2.832528,150.083466 2.763643,145.988937 2.694758,141.894424 
	C2.708490,138.927536 2.722222,135.960632 2.818480,132.088196 
	C2.824781,127.433159 2.748557,123.683693 2.672332,119.934219 
	C2.690387,115.949684 2.708441,111.965149 2.808464,107.072762 
	C2.817639,103.087952 2.744846,100.010986 2.672053,96.934029 
	C2.690205,92.617363 2.708357,88.300697 2.808370,83.077972 
	C2.817419,79.425880 2.744606,76.679832 2.671793,73.933792 
	C2.690058,69.617142 2.708323,65.300491 2.808510,60.074371 
	C2.817638,56.087948 2.744845,53.010998 2.672053,49.934044 
	C2.690201,45.949562 2.708349,41.965084 2.808464,37.072754 
	C2.817638,33.087948 2.744845,30.010992 2.672052,26.934038 
	C2.690204,22.617369 2.708356,18.300701 2.808370,13.077977 
	C2.817202,9.426007 2.744172,6.680092 2.671141,3.934177 
	C2.734730,3.198134 2.798319,2.462091 2.930954,1.363024 
	C205.000000,1.000000 407.000000,1.000000 609.000000,1.500000 
	C606.836487,2.052413 604.672974,2.150647 602.509460,2.150724 
	C405.523163,2.157742 208.536835,2.157238 11.550524,2.157239 
	C9.392903,2.157239 7.235283,2.157239 4.211775,2.157239 
	C4.211775,286.980774 4.211775,571.538208 4.204108,856.567749 
z"/>
<path fill="#DEDEDE" opacity="1.000000" stroke="none" 
	d="
M594.472656,861.000000 
	C595.278198,860.300171 596.513123,859.113647 597.842957,858.995605 
	C601.233093,858.694641 604.665588,858.870850 608.540588,858.928101 
	C608.531494,859.666687 608.083435,860.893921 607.591248,860.911865 
	C603.380493,861.065430 599.161682,861.000000 594.472656,861.000000 
z"/>
<path fill="#DEDEDE" opacity="1.000000" stroke="none" 
	d="
M151.980652,859.048096 
	C155.687454,859.010071 159.394287,858.971985 163.553436,859.316345 
	C164.003845,860.132507 164.001923,860.566284 164.000000,861.000000 
	C160.307098,861.000000 156.614182,861.000000 152.458069,860.674622 
	C151.990112,859.915527 151.985382,859.481812 151.980652,859.048096 
z"/>
<path fill="#DEDEDE" opacity="1.000000" stroke="none" 
	d="
M338.981964,859.043823 
	C342.687836,859.005310 346.393677,858.966797 350.551697,859.311890 
	C351.002533,860.130310 351.001282,860.565186 351.000000,861.000000 
	C347.307098,861.000000 343.614166,861.000000 339.457764,860.673950 
	C338.990143,859.913208 338.986053,859.478516 338.981964,859.043823 
z"/>
<path fill="#FFFFFF" opacity="1.000000" stroke="none" 
	d="
M338.529419,858.958496 
	C338.986053,859.478516 338.990143,859.913208 338.997131,860.673950 
	C335.307098,861.000000 331.614166,861.000000 327.463104,860.673889 
	C327.009186,859.913025 327.013428,859.478333 327.017670,859.043579 
	C330.704071,858.986755 334.390442,858.929993 338.529419,858.958496 
z"/>
<path fill="#DEDEDE" opacity="1.000000" stroke="none" 
	d="
M11.978701,859.052917 
	C15.686497,859.015015 19.394291,858.977112 23.553612,859.320312 
	C24.003422,860.134338 24.001711,860.567139 24.000000,861.000000 
	C20.307091,861.000000 16.614182,861.000000 12.457480,860.675476 
	C11.988693,859.918274 11.983697,859.485596 11.978701,859.052917 
z"/>
<path fill="#DEDEDE" opacity="1.000000" stroke="none" 
	d="
M34.978989,859.052612 
	C38.686787,859.014832 42.394581,858.977051 46.554440,859.320557 
	C47.004333,860.134583 47.002167,860.567261 47.000000,861.000000 
	C43.307091,861.000000 39.614182,861.000000 35.457962,860.675354 
	C34.989433,859.918030 34.984211,859.485291 34.978989,859.052612 
z"/>
<path fill="#FFFFFF" opacity="1.000000" stroke="none" 
	d="
M47.460640,861.000000 
	C47.002167,860.567261 47.004333,860.134583 47.013901,859.377441 
	C50.705399,858.996887 54.389492,858.940857 58.534313,859.293091 
	C58.996693,860.134277 58.998348,860.567139 59.000000,861.000000 
	C55.307091,861.000000 51.614182,861.000000 47.460640,861.000000 
z"/>
<path fill="#FFFFFF" opacity="1.000000" stroke="none" 
	d="
M70.020958,859.052551 
	C73.705132,858.996643 77.389297,858.940735 81.533493,859.293335 
	C81.995667,860.134583 81.997833,860.567261 82.000000,861.000000 
	C78.307091,861.000000 74.614182,861.000000 70.463242,860.675354 
	C70.010468,859.917969 70.015717,859.485291 70.020958,859.052551 
z"/>
<path fill="#DEDEDE" opacity="1.000000" stroke="none" 
	d="
M82.460632,861.000000 
	C81.997833,860.567261 81.995667,860.134583 81.986107,859.377441 
	C85.686226,859.013306 89.393753,858.973633 93.553513,859.316406 
	C94.003838,860.132507 94.001915,860.566284 94.000000,861.000000 
	C90.307091,861.000000 86.614182,861.000000 82.460632,861.000000 
z"/>
<path fill="#FFFFFF" opacity="1.000000" stroke="none" 
	d="
M94.460632,861.000000 
	C94.001915,860.566284 94.003838,860.132507 94.012726,859.373596 
	C97.704842,858.991943 101.389984,858.935486 105.535400,859.288757 
	C105.997116,860.132263 105.998558,860.566162 106.000000,861.000000 
	C102.307091,861.000000 98.614182,861.000000 94.460632,861.000000 
z"/>
<path fill="#FFFFFF" opacity="1.000000" stroke="none" 
	d="
M117.019333,859.048035 
	C120.704536,858.991760 124.389748,858.935486 128.534607,859.289001 
	C128.996155,860.132507 128.998077,860.566284 129.000000,861.000000 
	C125.307091,861.000000 121.614182,861.000000 117.463158,860.674622 
	C117.009811,859.915527 117.014572,859.481750 117.019333,859.048035 
z"/>
<path fill="#DEDEDE" opacity="1.000000" stroke="none" 
	d="
M129.460632,861.000000 
	C128.998077,860.566284 128.996155,860.132507 128.987274,859.373596 
	C132.687195,859.010193 136.394119,858.971985 140.552765,859.316162 
	C141.002991,860.132385 141.001495,860.566162 141.000000,861.000000 
	C137.307098,861.000000 133.614182,861.000000 129.460632,861.000000 
z"/>
<path fill="#FFFFFF" opacity="1.000000" stroke="none" 
	d="
M561.019958,859.049133 
	C565.005859,859.409790 568.991699,859.770447 572.988770,860.565552 
	C569.307068,861.000000 565.614197,861.000000 561.463684,860.674805 
	C561.010681,859.916138 561.015320,859.482605 561.019958,859.049133 
z"/>
<path fill="#FFFFFF" opacity="1.000000" stroke="none" 
	d="
M164.460632,861.000000 
	C164.001923,860.566284 164.003845,860.132507 164.012726,859.373596 
	C167.704834,858.992004 171.389954,858.935547 175.535400,859.288757 
	C175.997131,860.132263 175.998566,860.566162 176.000000,861.000000 
	C172.307098,861.000000 168.614182,861.000000 164.460632,861.000000 
z"/>
<path fill="#FFFFFF" opacity="1.000000" stroke="none" 
	d="
M187.019363,859.048035 
	C190.704559,858.991760 194.389771,858.935486 198.534607,859.289001 
	C198.996170,860.132507 198.998077,860.566284 199.000000,861.000000 
	C195.307098,861.000000 191.614182,861.000000 187.463165,860.674622 
	C187.009811,859.915527 187.014587,859.481750 187.019363,859.048035 
z"/>
<path fill="#DEDEDE" opacity="1.000000" stroke="none" 
	d="
M199.460632,861.000000 
	C198.998077,860.566284 198.996170,860.132507 198.987274,859.373657 
	C202.687195,859.010254 206.394119,858.972046 210.552765,859.316162 
	C211.002991,860.132385 211.001495,860.566162 211.000000,861.000000 
	C207.307098,861.000000 203.614182,861.000000 199.460632,861.000000 
z"/>
<path fill="#DEDEDE" opacity="1.000000" stroke="none" 
	d="
M221.980591,859.048096 
	C225.687424,859.010071 229.394272,858.971985 233.553436,859.316406 
	C234.003845,860.132507 234.001923,860.566284 234.000000,861.000000 
	C230.307098,861.000000 226.614182,861.000000 222.458069,860.674622 
	C221.990097,859.915527 221.985336,859.481812 221.980591,859.048096 
z"/>
<path fill="#FFFFFF" opacity="1.000000" stroke="none" 
	d="
M234.460632,861.000000 
	C234.001923,860.566284 234.003845,860.132507 234.012726,859.373596 
	C237.704834,858.992004 241.389954,858.935547 245.535400,859.288757 
	C245.997131,860.132263 245.998566,860.566162 246.000000,861.000000 
	C242.307098,861.000000 238.614182,861.000000 234.460632,861.000000 
z"/>
<path fill="#FFFFFF" opacity="1.000000" stroke="none" 
	d="
M257.018799,859.046387 
	C260.704742,858.988647 264.390686,858.930969 268.535828,859.284546 
	C268.996674,860.130554 268.998322,860.565308 269.000000,861.000000 
	C265.307098,861.000000 261.614166,861.000000 257.463104,860.674316 
	C257.009583,859.914612 257.014191,859.480469 257.018799,859.046387 
z"/>
<path fill="#DEDEDE" opacity="1.000000" stroke="none" 
	d="
M269.460632,861.000000 
	C268.998322,860.565308 268.996674,860.130554 268.988525,859.369873 
	C272.687927,859.005371 276.393829,858.966797 280.551758,859.311890 
	C281.002533,860.130310 281.001251,860.565186 281.000000,861.000000 
	C277.307098,861.000000 273.614166,861.000000 269.460632,861.000000 
z"/>
<path fill="#DEDEDE" opacity="1.000000" stroke="none" 
	d="
M291.982239,859.043579 
	C295.687927,859.005066 299.393585,858.966553 303.552002,859.311523 
	C304.003174,860.130005 304.001587,860.565002 304.000000,861.000000 
	C300.307098,861.000000 296.614166,861.000000 292.458160,860.673889 
	C291.990784,859.913025 291.986511,859.478271 291.982239,859.043579 
z"/>
<path fill="#FFFFFF" opacity="1.000000" stroke="none" 
	d="
M304.460632,861.000000 
	C304.001587,860.565002 304.003174,860.130005 304.011169,859.368774 
	C307.703949,858.986145 311.390289,858.929688 315.536438,859.284424 
	C315.997467,860.130371 315.998749,860.565186 316.000000,861.000000 
	C312.307098,861.000000 308.614166,861.000000 304.460632,861.000000 
z"/>
<path fill="#DEDEDE" opacity="1.000000" stroke="none" 
	d="
M408.980255,859.048462 
	C412.687134,859.010254 416.394012,858.972046 420.552734,859.316162 
	C421.003021,860.132385 421.001526,860.566162 421.000000,861.000000 
	C417.307098,861.000000 413.614166,861.000000 409.457642,860.674683 
	C408.989410,859.915710 408.984833,859.482056 408.980255,859.048462 
z"/>
<path fill="#DEDEDE" opacity="1.000000" stroke="none" 
	d="
M478.979950,859.049255 
	C482.686920,859.010742 486.393890,858.972229 490.552673,859.316162 
	C491.003021,860.132385 491.001526,860.566162 491.000000,861.000000 
	C487.307098,861.000000 483.614166,861.000000 479.457581,860.674866 
	C478.989258,859.916260 478.984619,859.482727 478.979950,859.049255 
z"/>
<path fill="#FFFFFF" opacity="1.000000" stroke="none" 
	d="
M478.527405,858.964966 
	C478.984619,859.482727 478.989258,859.916260 478.996948,860.674866 
	C475.307098,861.000000 471.614166,861.000000 467.463135,860.674622 
	C467.009827,859.915527 467.014587,859.481750 467.019348,859.048096 
	C470.704498,858.992310 474.389679,858.936523 478.527405,858.964966 
z"/>
<path fill="#DEDEDE" opacity="1.000000" stroke="none" 
	d="
M501.980530,859.048096 
	C505.687408,859.010071 509.394318,858.971985 513.553467,859.316345 
	C514.003784,860.132507 514.001892,860.566284 514.000000,861.000000 
	C510.307098,861.000000 506.614166,861.000000 502.458069,860.674622 
	C501.990082,859.915527 501.985321,859.481812 501.980530,859.048096 
z"/>
<path fill="#FFFFFF" opacity="1.000000" stroke="none" 
	d="
M514.460632,861.000000 
	C514.001892,860.566284 514.003784,860.132507 514.012756,859.373535 
	C517.704773,858.991882 521.389771,858.935547 525.534546,859.288940 
	C525.996216,860.132507 525.998108,860.566284 526.000000,861.000000 
	C522.307068,861.000000 518.614197,861.000000 514.460632,861.000000 
z"/>
<path fill="#FFFFFF" opacity="1.000000" stroke="none" 
	d="
M444.019653,859.048462 
	C447.704865,858.992065 451.390076,858.935608 455.535461,859.288818 
	C455.997101,860.132263 455.998566,860.566162 456.000000,861.000000 
	C452.307098,861.000000 448.614166,861.000000 444.463623,860.674683 
	C444.010559,859.915710 444.015106,859.482056 444.019653,859.048462 
z"/>
<path fill="#DEDEDE" opacity="1.000000" stroke="none" 
	d="
M443.560181,858.991089 
	C444.015106,859.482056 444.010559,859.915710 444.002991,860.674683 
	C440.307098,861.000000 436.614166,861.000000 432.458069,860.674622 
	C431.990051,859.915527 431.985291,859.481812 431.980530,859.048096 
	C435.687256,859.010010 439.394012,858.971924 443.560181,858.991089 
z"/>
<path fill="#DEDEDE" opacity="1.000000" stroke="none" 
	d="
M526.460632,861.000000 
	C525.998108,860.566284 525.996216,860.132507 525.987244,859.373535 
	C529.687134,859.010132 533.394165,858.971985 537.552856,859.316162 
	C538.002991,860.132324 538.001465,860.566162 538.000000,861.000000 
	C534.307068,861.000000 530.614197,861.000000 526.460632,861.000000 
z"/>
<path fill="#FFFFFF" opacity="1.000000" stroke="none" 
	d="
M408.527710,858.963684 
	C408.984833,859.482056 408.989410,859.915710 408.997009,860.674683 
	C405.307098,861.000000 401.614166,861.000000 397.463135,860.674622 
	C397.009796,859.915527 397.014587,859.481750 397.019348,859.048035 
	C400.704620,858.991699 404.389923,858.935303 408.527710,858.963684 
z"/>
<path fill="#DEDEDE" opacity="1.000000" stroke="none" 
	d="
M560.560486,858.991577 
	C561.015320,859.482605 561.010681,859.916138 561.003052,860.674805 
	C557.307068,861.000000 553.614197,861.000000 549.458130,860.674622 
	C548.990112,859.915527 548.985291,859.481750 548.980469,859.048035 
	C552.687317,859.010010 556.394165,858.971985 560.560486,858.991577 
z"/>
<path fill="#FFFFFF" opacity="1.000000" stroke="none" 
	d="
M374.017975,859.043884 
	C377.704254,858.987000 381.390564,858.930115 385.536591,859.284363 
	C385.997559,860.130310 385.998779,860.565186 386.000000,861.000000 
	C382.307098,861.000000 378.614166,861.000000 374.463501,860.673950 
	C374.009857,859.913208 374.013916,859.478577 374.017975,859.043884 
z"/>
<path fill="#DEDEDE" opacity="1.000000" stroke="none" 
	d="
M373.558716,858.986084 
	C374.013916,859.478577 374.009857,859.913208 374.002869,860.673950 
	C370.307098,861.000000 366.614166,861.000000 362.458160,860.673889 
	C361.990784,859.913025 361.986511,859.478271 361.982239,859.043518 
	C365.687958,859.005127 369.393707,858.966736 373.558716,858.986084 
z"/>
<path fill="#FFFFFF" opacity="1.000000" stroke="none" 
	d="
M11.540697,858.969299 
	C11.983697,859.485596 11.988693,859.918274 11.996844,860.675476 
	C8.833333,861.000000 5.661293,861.092834 2.505198,860.910156 
	C1.968400,860.879150 1.499987,859.666687 0.999993,858.500000 
	C4.367564,858.295227 7.735129,858.590454 11.540697,858.969299 
z"/>
<path fill="#DEDEDE" opacity="1.000000" stroke="none" 
	d="
M316.457520,861.000000 
	C315.998749,860.565186 315.997467,860.130371 315.989258,859.369629 
	C319.356384,859.006592 322.730469,858.969543 326.561096,858.988037 
	C327.013428,859.478333 327.009186,859.913025 327.002472,860.673889 
	C323.638336,861.000000 320.276642,861.000000 316.457520,861.000000 
z"/>
<path fill="#FFFFFF" opacity="1.000000" stroke="none" 
	d="
M548.530762,858.965393 
	C548.985291,859.481750 548.990112,859.915527 548.997437,860.674622 
	C545.638306,861.000000 542.276672,861.000000 538.457520,861.000000 
	C538.001465,860.566162 538.002991,860.132324 538.012024,859.373291 
	C541.373352,858.992981 544.727173,858.937866 548.530762,858.965393 
z"/>
<path fill="#DEDEDE" opacity="1.000000" stroke="none" 
	d="
M256.562378,858.992065 
	C257.014191,859.480469 257.009583,859.914612 257.002472,860.674316 
	C253.638153,861.000000 250.276291,861.000000 246.457230,861.000000 
	C245.998566,860.566162 245.997131,860.132263 245.988159,859.373230 
	C249.355728,859.011230 252.730835,858.974487 256.562378,858.992065 
z"/>
<path fill="#FFFFFF" opacity="1.000000" stroke="none" 
	d="
M291.532410,858.960449 
	C291.986511,859.478271 291.990784,859.913025 291.997528,860.673889 
	C288.638336,861.000000 285.276642,861.000000 281.457458,861.000000 
	C281.001251,860.565186 281.002533,860.130310 281.010773,859.369507 
	C284.372711,858.988098 287.727631,858.932678 291.532410,858.960449 
z"/>
<path fill="#FFFFFF" opacity="1.000000" stroke="none" 
	d="
M361.532410,858.960449 
	C361.986511,859.478271 361.990784,859.913025 361.997528,860.673889 
	C358.638336,861.000000 355.276642,861.000000 351.457489,861.000000 
	C351.001282,860.565186 351.002533,860.130310 351.010803,859.369507 
	C354.372711,858.988098 357.727631,858.932739 361.532410,858.960449 
z"/>
<path fill="#FFFFFF" opacity="1.000000" stroke="none" 
	d="
M221.530853,858.965454 
	C221.985336,859.481812 221.990097,859.915527 221.997421,860.674622 
	C218.638336,861.000000 215.276657,861.000000 211.457489,861.000000 
	C211.001495,860.566162 211.002991,860.132385 211.011932,859.373291 
	C214.373306,858.992981 217.727203,858.937866 221.530853,858.965454 
z"/>
<path fill="#FFFFFF" opacity="1.000000" stroke="none" 
	d="
M501.530792,858.965454 
	C501.985321,859.481812 501.990082,859.915527 501.997437,860.674622 
	C498.638336,861.000000 495.276642,861.000000 491.457489,861.000000 
	C491.001526,860.566162 491.003021,860.132385 491.011993,859.373291 
	C494.373322,858.992981 497.727203,858.937866 501.530792,858.965454 
z"/>
<path fill="#DEDEDE" opacity="1.000000" stroke="none" 
	d="
M186.562927,858.993164 
	C187.014587,859.481750 187.009811,859.915527 187.002533,860.674622 
	C183.638153,861.000000 180.276291,861.000000 176.457230,861.000000 
	C175.998566,860.566162 175.997131,860.132263 175.988159,859.373291 
	C179.355927,859.011475 182.731201,858.974854 186.562927,858.993164 
z"/>
<path fill="#DEDEDE" opacity="1.000000" stroke="none" 
	d="
M456.457214,861.000000 
	C455.998566,860.566162 455.997101,860.132263 455.988159,859.373230 
	C459.355896,859.011353 462.731110,858.974731 466.562866,858.993042 
	C467.014587,859.481750 467.009827,859.915527 467.002502,860.674622 
	C463.638153,861.000000 460.276276,861.000000 456.457214,861.000000 
z"/>
<path fill="#FFFFFF" opacity="1.000000" stroke="none" 
	d="
M141.457489,861.000000 
	C141.001495,860.566162 141.002991,860.132385 141.011932,859.373291 
	C144.373352,858.992920 147.727295,858.937805 151.530945,858.965393 
	C151.985382,859.481812 151.990112,859.915527 151.997437,860.674622 
	C148.638336,861.000000 145.276657,861.000000 141.457489,861.000000 
z"/>
<path fill="#DEDEDE" opacity="1.000000" stroke="none" 
	d="
M116.562897,858.993164 
	C117.014572,859.481750 117.009811,859.915527 117.002518,860.674622 
	C113.638145,861.000000 110.276299,861.000000 106.457222,861.000000 
	C105.998558,860.566162 105.997116,860.132263 105.988174,859.373230 
	C109.355934,859.011475 112.731201,858.974854 116.562897,858.993164 
z"/>
<path fill="#FFFFFF" opacity="1.000000" stroke="none" 
	d="
M431.530792,858.965454 
	C431.985291,859.481812 431.990051,859.915527 431.997437,860.674622 
	C428.638336,861.000000 425.276642,861.000000 421.457520,861.000000 
	C421.001526,860.566162 421.003021,860.132385 421.012024,859.373352 
	C424.373322,858.993042 427.727203,858.937927 431.530792,858.965454 
z"/>
<path fill="#DEDEDE" opacity="1.000000" stroke="none" 
	d="
M69.564369,858.997803 
	C70.015717,859.485291 70.010468,859.917969 70.002609,860.675354 
	C66.638145,861.000000 63.276295,861.000000 59.457222,861.000000 
	C58.998348,860.567139 58.996693,860.134277 58.987041,859.376953 
	C62.355289,859.016113 65.731537,858.979614 69.564369,858.997803 
z"/>
<path fill="#DEDEDE" opacity="1.000000" stroke="none" 
	d="
M386.457214,861.000000 
	C385.998779,860.565186 385.997559,860.130310 385.989319,859.369507 
	C389.357025,859.008423 392.731689,858.973267 396.562866,858.993042 
	C397.014587,859.481750 397.009796,859.915527 397.002502,860.674622 
	C393.638153,861.000000 390.276276,861.000000 386.457214,861.000000 
z"/>
<path fill="#FFFFFF" opacity="1.000000" stroke="none" 
	d="
M34.529335,858.970337 
	C34.984211,859.485291 34.989433,859.918030 34.997330,860.675354 
	C31.638332,861.000000 28.276665,861.000000 24.457499,861.000000 
	C24.001711,860.567139 24.003422,860.134338 24.013069,859.377075 
	C27.373898,858.997742 30.726791,858.942932 34.529335,858.970337 
z"/>
<path fill="#B3CCB3" opacity="1.000000" stroke="none" 
	d="
M69.693787,802.843140 
	C59.085724,802.491455 59.085716,802.491455 59.085716,791.647827 
	C59.085720,674.155518 59.091152,556.663208 59.084126,439.170929 
	C59.077549,329.181183 59.057777,219.191467 59.195641,108.518471 
	C60.058052,107.547287 60.768642,107.259369 61.380318,107.433464 
	C61.281410,214.704330 61.281410,321.513184 61.281410,428.717621 
	C67.305008,428.717621 72.598961,428.717621 77.954529,428.997253 
	C77.974228,429.846680 77.932304,430.416412 77.429977,430.983429 
	C71.856667,430.980682 66.743752,430.980682 61.253044,430.980682 
	C61.253044,433.778717 61.253044,435.923218 61.253044,438.067749 
	C61.253044,555.944031 61.253033,673.820312 61.253056,791.696594 
	C61.253059,801.439758 61.253124,801.439758 70.788101,800.706787 
	C70.316132,801.521790 70.004959,802.182434 69.693787,802.843140 
z"/>
<path fill="#FAEF00" opacity="1.000000" stroke="none" 
	d="
M506.151489,56.874641 
	C501.454956,48.893227 496.758392,40.911808 491.588379,32.125744 
	C513.691345,31.500154 535.123535,30.893549 557.673157,30.255314 
	C552.855835,39.364189 548.413696,47.763577 543.660278,56.729271 
	C543.081177,57.907696 542.813232,58.519814 542.339478,59.365257 
	C539.650452,64.276901 537.167297,68.955223 534.357544,73.558075 
	C528.210815,70.181549 522.238708,70.025604 515.986694,72.271301 
	C513.108582,67.672012 510.377594,63.418842 507.633362,58.951271 
	C507.237976,58.323059 506.855774,57.909248 506.509491,57.401058 
	C506.455902,57.125793 506.324585,56.981781 506.151489,56.874641 
z"/>
<path fill="#FAEF00" opacity="1.000000" stroke="none" 
	d="
M557.078247,756.806885 
	C565.039062,752.532776 572.999878,748.258728 581.112427,743.903137 
	C581.112427,765.830811 581.112427,787.266296 581.112427,809.810791 
	C572.513184,804.847046 564.841736,800.418823 556.636597,795.732849 
	C555.725464,795.291260 555.347961,795.107422 554.743408,794.677063 
	C549.645142,791.569519 544.773926,788.708435 539.942261,785.466614 
	C543.537415,778.817932 542.480347,772.482849 540.605225,766.108337 
	C545.909790,763.256897 550.866882,760.427917 556.165771,757.445679 
	C556.697876,757.130676 556.888062,756.968811 557.078247,756.806885 
z"/>
<path fill="#F9EE00" opacity="1.000000" stroke="none" 
	d="
M69.600433,803.219788 
	C70.004959,802.182434 70.316132,801.521790 71.054161,800.441101 
	C73.415649,796.304077 75.350281,792.587036 77.653381,788.773438 
	C84.790108,791.616699 91.422256,791.373535 98.016487,788.164917 
	C100.733536,792.639893 103.347221,796.776306 105.999496,801.101074 
	C106.329285,801.687988 106.620483,802.086548 106.911682,802.485168 
	C111.385269,810.225464 115.858856,817.965759 120.981384,826.828857 
	C99.333015,826.828857 78.417099,826.828857 56.882950,826.828857 
	C60.942360,819.358276 65.224724,811.477356 69.600433,803.219788 
z"/>
<path fill="#F9EE00" opacity="1.000000" stroke="none" 
	d="
M61.479229,106.971443 
	C60.768642,107.259369 60.058052,107.547287 59.170952,107.997620 
	C52.215389,111.978271 45.436344,115.796516 37.823296,120.084511 
	C37.823296,98.380630 37.823296,77.417091 37.823296,55.832722 
	C44.030094,59.291401 50.072788,62.658638 56.679508,66.373856 
	C58.185230,66.993896 59.126923,67.265961 60.209618,67.635712 
	C60.658276,68.056557 60.965935,68.379707 61.588722,68.966080 
	C65.449753,71.231293 68.995651,73.233284 72.462250,75.615685 
	C67.348656,84.239441 69.243111,91.714958 74.559502,98.830788 
	C69.967773,101.583015 65.723503,104.277229 61.479229,106.971443 
z"/>
<path fill="#0002F9" opacity="1.000000" stroke="none" 
	d="
M350.358093,802.476501 
	C350.358093,807.280640 350.358093,812.084839 350.358093,817.184814 
	C322.020630,817.184814 294.280670,817.184814 265.783722,817.184814 
	C265.783722,812.622192 265.783722,808.043884 265.743103,802.722961 
	C265.776428,801.650513 265.850372,801.320557 266.285767,800.927002 
	C266.888092,800.906555 267.128937,800.949768 267.602631,801.323608 
	C268.315582,801.757446 268.795624,801.950745 269.275787,801.951111 
	C294.648071,801.968262 320.020386,801.980713 345.392548,801.930481 
	C346.425934,801.928406 347.458130,801.319519 348.856262,800.944458 
	C349.465454,800.926758 349.709229,800.958008 349.995239,801.243652 
	C350.144318,801.824219 350.251221,802.150330 350.358093,802.476501 
z"/>
<path fill="#DAE701" opacity="1.000000" stroke="none" 
	d="
M265.427795,56.938709 
	C265.427795,52.165493 265.427795,47.392281 265.427795,42.336212 
	C293.989655,42.336212 321.933075,42.336212 350.462738,42.336212 
	C350.462738,47.023777 350.462738,51.456089 350.416870,56.650604 
	C350.229858,57.954243 350.088684,58.495682 349.589294,59.093369 
	C348.991302,59.118095 348.751495,59.086575 348.231445,58.818275 
	C347.303650,58.465652 346.656219,58.249050 346.008606,58.248505 
	C320.908600,58.227425 295.808563,58.215714 270.708649,58.257275 
	C269.622375,58.259075 268.536926,58.775082 267.080322,59.107086 
	C266.462952,59.121796 266.216370,59.080963 265.911865,58.681686 
	C265.711914,57.861732 265.569855,57.400219 265.427795,56.938709 
z"/>
<path fill="#F1F4F0" opacity="1.000000" stroke="none" 
	d="
M555.949951,58.034698 
	C556.112732,65.118759 556.426392,72.203079 556.413696,79.286827 
	C556.337769,121.547264 556.076416,163.807587 556.087891,206.067902 
	C556.103333,262.708771 556.381470,319.349518 556.418762,375.990417 
	C556.479065,467.456360 556.433838,558.922363 556.435669,650.388367 
	C556.436218,677.992981 556.445007,705.597595 556.121399,733.551147 
	C555.535828,733.926147 555.278870,733.952148 554.940979,733.517090 
	C554.852417,707.712585 554.845276,682.369141 554.837219,657.025696 
	C554.813232,581.784119 554.788940,506.542480 554.786255,430.854401 
	C554.773865,429.812897 554.739868,429.217865 554.750122,428.179932 
	C554.808777,348.854279 554.823853,269.971527 554.836975,191.088776 
	C554.840393,170.660629 554.875916,150.232361 554.821533,129.804367 
	C554.793884,119.418724 554.520691,109.033684 554.499695,98.648087 
	C554.473206,85.565399 554.591003,72.482422 554.801636,59.113789 
	C555.287781,58.563576 555.618835,58.299137 555.949951,58.034698 
z"/>
<path fill="#B3CCB3" opacity="1.000000" stroke="none" 
	d="
M61.273594,68.702858 
	C60.965935,68.379707 60.658276,68.056557 60.616676,67.284943 
	C60.507107,63.890636 60.131477,60.944790 59.755848,57.998947 
	C61.304550,57.665428 62.853092,57.041103 64.401978,57.040241 
	C130.952820,57.003201 197.503693,57.021534 264.522217,57.410301 
	C264.993195,58.190266 264.996552,58.593029 264.538513,59.084972 
	C251.537857,59.174149 238.998566,59.174149 226.240067,59.174149 
	C226.240067,65.863953 226.240067,71.672638 225.898743,77.605034 
	C225.081375,77.648308 224.605362,77.567871 224.145264,77.051460 
	C224.161194,70.976944 224.161194,65.338394 224.161194,59.223637 
	C221.721420,59.223637 219.766449,59.223633 217.811478,59.223633 
	C188.814133,59.223625 159.816788,59.223499 130.819443,59.223660 
	C109.154762,59.223782 87.489540,59.302219 65.825890,59.152935 
	C61.912899,59.125977 60.188644,60.446491 60.584839,64.314331 
	C60.735512,65.785255 61.039486,67.240479 61.273594,68.702858 
z"/>
<path fill="#F1F4F0" opacity="1.000000" stroke="none" 
	d="
M350.803162,802.468445 
	C350.251221,802.150330 350.144318,801.824219 350.464478,801.190308 
	C363.644135,800.882507 376.396820,800.882507 389.707123,800.882507 
	C389.707123,794.543762 389.707123,788.770935 390.140381,782.921875 
	C390.862396,782.896545 391.151154,782.947632 391.428711,783.465881 
	C391.417450,789.504089 391.417450,795.075195 391.417450,800.552856 
	C446.315979,800.552856 500.335419,800.552856 554.591614,800.552856 
	C554.729431,798.505127 554.849915,796.714294 554.970459,794.923523 
	C555.347961,795.107422 555.725464,795.291260 556.278564,795.594849 
	C556.454102,797.699097 556.454102,799.683533 556.454102,802.460388 
	C487.827332,802.460388 419.537811,802.460388 350.803162,802.468445 
z"/>
<path fill="#F1F4F0" opacity="1.000000" stroke="none" 
	d="
M265.924316,800.990662 
	C265.850372,801.320557 265.776428,801.650513 265.655792,802.230530 
	C213.072845,802.478943 160.536606,802.477295 107.456024,802.480347 
	C106.620483,802.086548 106.329285,801.687988 106.470551,801.069580 
	C145.894394,800.849854 184.885773,800.849854 224.375488,800.849854 
	C224.375488,794.552124 224.375488,788.777222 224.670471,782.955322 
	C225.348679,782.939636 225.731903,782.971008 226.107574,783.469910 
	C226.100021,789.392334 226.100021,794.847107 226.100021,800.990662 
	C239.701752,800.990662 252.813034,800.990662 265.924316,800.990662 
z"/>
<path fill="#AFC9AF" opacity="1.000000" stroke="none" 
	d="
M349.947510,59.037117 
	C350.088684,58.495682 350.229858,57.954243 350.505280,57.168030 
	C402.112610,56.922291 453.585663,56.921326 505.605103,56.897507 
	C506.324585,56.981781 506.455902,57.125793 506.381470,57.531155 
	C506.217590,57.755627 505.976624,58.023621 505.510315,58.016159 
	C469.598785,58.006157 434.153534,57.987774 398.708405,58.044754 
	C396.803192,58.047817 394.898987,58.684059 392.746765,59.138168 
	C392.205872,59.463783 391.912537,59.676773 391.464600,59.664925 
	C390.961121,59.015953 390.612274,58.591820 390.263428,58.167683 
	C390.024078,58.720707 389.784760,59.273735 389.296875,59.677765 
	C388.700714,59.360756 388.353180,59.192749 387.688782,58.754555 
	C375.988556,58.334908 364.605347,58.167126 353.221466,58.078377 
	C352.484589,58.072632 351.742950,58.675461 350.741730,59.060997 
	C350.302460,59.096905 350.124969,59.067009 349.947510,59.037117 
z"/>
<path fill="#ABC7AB" opacity="1.000000" stroke="none" 
	d="
M555.744507,57.660820 
	C555.618835,58.299137 555.287781,58.563576 554.360718,59.080917 
	C550.024902,59.266521 546.285095,59.199226 542.545288,59.131927 
	C542.813232,58.519814 543.081177,57.907696 543.610168,57.079887 
	C547.760559,57.005108 551.649780,57.146023 555.744507,57.660820 
z"/>
<path fill="#71A071" opacity="1.000000" stroke="none" 
	d="
M555.021973,733.978088 
	C555.278870,733.952148 555.535828,733.926147 556.162476,734.015991 
	C556.705505,741.386841 556.878845,748.641846 557.065247,756.351868 
	C556.888062,756.968811 556.697876,757.130676 556.115234,756.921753 
	C555.489197,749.026611 555.255554,741.502380 555.021973,733.978088 
z"/>
<path fill="#075603" opacity="1.000000" stroke="none" 
	d="
M59.412125,58.132023 
	C60.131477,60.944790 60.507107,63.890636 60.475677,67.187248 
	C59.126923,67.265961 58.185230,66.993896 57.024963,66.411407 
	C57.560394,63.489017 58.314396,60.877056 59.412125,58.132023 
z"/>
<path fill="#AFC9AF" opacity="1.000000" stroke="none" 
	d="
M264.999908,58.995796 
	C264.996552,58.593029 264.993195,58.190266 264.984070,57.485489 
	C264.978302,57.183479 265.149261,56.959591 265.288513,56.949150 
	C265.569855,57.400219 265.711914,57.861732 265.666870,58.726620 
	C265.479767,59.129993 264.999908,58.995796 264.999908,58.995796 
z"/>
<path fill="#BD6B6B" opacity="1.000000" stroke="none" 
	d="
M2.489308,255.256317 
	C2.799321,256.217010 2.994732,257.540894 2.994822,258.864746 
	C3.004533,402.633881 2.999771,546.403015 2.991723,690.172180 
	C2.991685,690.837708 2.933255,691.503174 2.798574,692.637207 
	C2.463484,691.318604 2.029615,689.531555 2.029151,687.744324 
	C1.992085,545.024353 1.988086,402.304413 1.995617,259.584442 
	C1.995687,258.262787 2.183406,256.941162 2.489308,255.256317 
z"/>
<path fill="#BD6B6B" opacity="1.000000" stroke="none" 
	d="
M2.492907,165.254822 
	C2.763710,169.321487 2.832617,173.748535 2.798251,178.640640 
	C2.560323,174.608856 2.425666,170.112030 2.492907,165.254822 
z"/>
<path fill="#BD6B6B" opacity="1.000000" stroke="none" 
	d="
M2.492924,749.254639 
	C2.763717,753.321411 2.832620,757.748474 2.798252,762.640686 
	C2.560332,758.608887 2.425683,754.111938 2.492924,749.254639 
z"/>
<path fill="#BD6B6B" opacity="1.000000" stroke="none" 
	d="
M2.492925,702.254639 
	C2.763717,706.321411 2.832621,710.748474 2.798252,715.640686 
	C2.560332,711.608887 2.425684,707.111938 2.492925,702.254639 
z"/>
<path fill="#BD6B6B" opacity="1.000000" stroke="none" 
	d="
M2.492907,235.254822 
	C2.763710,239.321487 2.832617,243.748535 2.798252,248.640640 
	C2.560323,244.608856 2.425666,240.112030 2.492907,235.254822 
z"/>
<path fill="#BD6B6B" opacity="1.000000" stroke="none" 
	d="
M2.492924,772.254639 
	C2.763716,776.321411 2.832620,780.748474 2.798252,785.640686 
	C2.560332,781.608887 2.425683,777.111938 2.492924,772.254639 
z"/>
<path fill="#BD6B6B" opacity="1.000000" stroke="none" 
	d="
M2.492907,212.254822 
	C2.763710,216.321487 2.832617,220.748535 2.798251,225.640640 
	C2.560323,221.608856 2.425666,217.112030 2.492907,212.254822 
z"/>
<path fill="#BD6B6B" opacity="1.000000" stroke="none" 
	d="
M2.493481,726.252563 
	C2.763649,729.988831 2.832528,734.083435 2.798172,738.641846 
	C2.560687,734.940796 2.426440,730.775879 2.493481,726.252563 
z"/>
<path fill="#BD6B6B" opacity="1.000000" stroke="none" 
	d="
M2.493480,796.252563 
	C2.763646,799.988831 2.832524,804.083435 2.798158,808.641846 
	C2.560674,804.940796 2.426433,800.775879 2.493480,796.252563 
z"/>
<path fill="#BD6B6B" opacity="1.000000" stroke="none" 
	d="
M2.493446,142.252716 
	C2.763643,145.988937 2.832528,150.083466 2.798172,154.641846 
	C2.560666,150.940811 2.426400,146.775909 2.493446,142.252716 
z"/>
<path fill="#BD6B6B" opacity="1.000000" stroke="none" 
	d="
M2.493446,189.252716 
	C2.763643,192.988937 2.832528,197.083466 2.798172,201.641846 
	C2.560667,197.940811 2.426400,193.775909 2.493446,189.252716 
z"/>
<path fill="#BD6B6B" opacity="1.000000" stroke="none" 
	d="
M2.480432,120.289322 
	C2.748557,123.683693 2.824781,127.433159 2.797932,131.644196 
	C2.559416,128.285294 2.423974,124.464859 2.480432,120.289322 
z"/>
<path fill="#BD6B6B" opacity="1.000000" stroke="none" 
	d="
M2.482425,97.279961 
	C2.744846,100.010986 2.817639,103.087952 2.781341,106.615486 
	C2.545765,103.919342 2.419281,100.772614 2.482425,97.279961 
z"/>
<path fill="#BD6B6B" opacity="1.000000" stroke="none" 
	d="
M2.482419,844.280029 
	C2.744841,847.010986 2.817631,850.087952 2.781335,853.615417 
	C2.545761,850.919312 2.419274,847.772583 2.482419,844.280029 
z"/>
<path fill="#BD6B6B" opacity="1.000000" stroke="none" 
	d="
M2.482425,50.279976 
	C2.744845,53.010998 2.817638,56.087948 2.781340,59.615475 
	C2.545765,56.919334 2.419281,53.772625 2.482425,50.279976 
z"/>
<path fill="#BD6B6B" opacity="1.000000" stroke="none" 
	d="
M2.482425,27.279972 
	C2.744845,30.010992 2.817638,33.087948 2.781340,36.615475 
	C2.545765,33.919334 2.419281,30.772621 2.482425,27.279972 
z"/>
<path fill="#BD6B6B" opacity="1.000000" stroke="none" 
	d="
M2.482418,821.280029 
	C2.744841,824.010986 2.817630,827.087952 2.781334,830.615417 
	C2.545761,827.919312 2.419273,824.772583 2.482418,821.280029 
z"/>
<path fill="#BD6B6B" opacity="1.000000" stroke="none" 
	d="
M2.483329,4.273098 
	C2.744172,6.680092 2.817202,9.426007 2.781108,12.619100 
	C2.546496,10.248191 2.421006,7.430105 2.483329,4.273098 
z"/>
<path fill="#BD6B6B" opacity="1.000000" stroke="none" 
	d="
M2.483836,74.272675 
	C2.744606,76.679832 2.817419,79.425880 2.781109,82.619102 
	C2.546617,80.248047 2.421248,77.429802 2.483836,74.272675 
z"/>
<path fill="#DD0100" opacity="1.000000" stroke="none" 
	d="
M77.890381,430.986176 
	C77.932304,430.416412 77.974228,429.846680 78.024246,428.478638 
	C77.777428,318.529663 77.522514,209.379013 77.629135,100.254189 
	C83.345322,102.622887 88.643532,102.075890 93.919998,100.443985 
	C94.215118,207.927887 94.500206,314.936859 94.796593,421.945770 
	C94.803040,424.272064 94.938881,426.597992 94.987907,429.114624 
	C94.981346,429.814301 95.001228,430.323517 94.950302,431.370728 
	C94.859055,432.740784 94.819420,433.572845 94.820923,434.404816 
	C95.013763,541.105286 95.208450,647.805786 95.414864,754.506226 
	C95.418404,756.334351 95.565063,758.162292 95.243790,760.044312 
	C89.552971,760.196838 84.263306,760.295410 78.976387,759.900574 
	C78.684395,651.429199 78.390427,543.451233 78.086922,435.473236 
	C78.082718,433.977386 77.958557,432.481842 77.890381,430.986176 
z"/>
<path fill="#055603" opacity="1.000000" stroke="none" 
	d="
M77.429977,430.983429 
	C77.958557,432.481842 78.082718,433.977386 78.086922,435.473236 
	C78.390427,543.451233 78.684395,651.429199 78.792923,760.145020 
	C69.352188,770.123352 68.840973,776.649658 76.519836,787.058716 
	C76.898170,787.571533 77.035439,788.262146 77.284943,788.869995 
	C75.350281,792.587036 73.415649,796.304077 71.214958,800.286804 
	C61.253124,801.439758 61.253059,801.439758 61.253056,791.696594 
	C61.253033,673.820312 61.253044,555.944031 61.253044,438.067749 
	C61.253044,435.923218 61.253044,433.778717 61.253044,430.980682 
	C66.743752,430.980682 71.856667,430.980682 77.429977,430.983429 
z"/>
<path fill="#055603" opacity="1.000000" stroke="none" 
	d="
M77.267609,100.228348 
	C77.522514,209.379013 77.777428,318.529663 77.962624,428.198975 
	C72.598961,428.717621 67.305008,428.717621 61.281410,428.717621 
	C61.281410,321.513184 61.281410,214.704330 61.380318,107.433464 
	C65.723503,104.277229 69.967773,101.583015 74.901550,98.919952 
	C76.149895,99.376846 76.708748,99.802597 77.267609,100.228348 
z"/>
<path fill="#055603" opacity="1.000000" stroke="none" 
	d="
M542.339478,59.365257 
	C546.285095,59.199226 550.024902,59.266521 554.205627,59.366692 
	C554.591003,72.482422 554.473206,85.565399 554.499695,98.648087 
	C554.520691,109.033684 554.793884,119.418724 554.821533,129.804367 
	C554.875916,150.232361 554.840393,170.660629 554.836975,191.088776 
	C554.823853,269.971527 554.808777,348.854279 554.301392,428.209045 
	C547.212585,428.708954 540.616882,428.736816 533.940613,428.317688 
	C533.681580,390.885010 533.435852,353.899445 533.338928,316.913513 
	C533.150330,244.939240 533.045288,172.964752 533.085693,100.705093 
	C538.364319,96.288605 541.592407,91.097275 539.916382,84.454277 
	C538.956543,80.649521 536.478638,77.227753 534.684143,73.633545 
	C537.167297,68.955223 539.650452,64.276901 542.339478,59.365257 
z"/>
<path fill="#075603" opacity="1.000000" stroke="none" 
	d="
M391.619202,59.889755 
	C391.912537,59.676773 392.205872,59.463783 393.210327,59.215488 
	C405.379120,59.190720 416.836761,59.227631 428.294312,59.206451 
	C454.193970,59.158573 480.093567,59.082008 506.189880,59.102364 
	C506.806580,59.180298 507.226562,59.172993 507.646576,59.165680 
	C510.377594,63.418842 513.108582,67.672012 515.854614,72.540131 
	C514.213684,74.748718 512.557678,76.342354 510.445007,77.884262 
	C472.715210,77.796303 435.442139,77.765549 398.169067,77.709732 
	C396.016907,77.706505 393.865082,77.499489 391.710114,76.962585 
	C391.677826,70.988487 391.648499,65.439117 391.619202,59.889755 
z"/>
<path fill="#030200" opacity="1.000000" stroke="none" 
	d="
M510.901733,77.935989 
	C512.557678,76.342354 514.213684,74.748718 516.001709,72.886253 
	C522.238708,70.025604 528.210815,70.181549 534.357544,73.558075 
	C536.478638,77.227753 538.956543,80.649521 539.916382,84.454277 
	C541.592407,91.097275 538.364319,96.288605 532.709045,100.751945 
	C526.872742,103.761581 521.563782,102.913834 516.022949,100.945358 
	C513.560425,98.387939 511.322662,96.101418 509.134216,93.420479 
	C509.756256,87.996040 510.328979,82.966019 510.901733,77.935989 
z"/>
<path fill="#AFC9AF" opacity="1.000000" stroke="none" 
	d="
M507.633362,58.951279 
	C507.226562,59.172993 506.806580,59.180298 506.189941,58.853916 
	C505.993286,58.520229 505.976624,58.023621 505.976624,58.023621 
	C505.976624,58.023621 506.217590,57.755627 506.345581,57.625530 
	C506.855774,57.909248 507.237976,58.323059 507.633362,58.951279 
z"/>
<path fill="#055603" opacity="1.000000" stroke="none" 
	d="
M554.940979,733.517090 
	C555.255554,741.502380 555.489197,749.026611 555.773376,757.074890 
	C550.866882,760.427917 545.909790,763.256897 540.279907,765.975586 
	C537.949524,764.219666 536.292053,762.574158 534.592773,760.456909 
	C534.478760,752.819458 534.355408,745.653870 534.342102,738.487976 
	C534.154785,637.825989 533.981262,537.164001 533.816040,436.501953 
	C533.813049,434.673828 533.952881,432.845398 534.492920,431.014160 
	C541.561401,431.107727 548.163147,431.204315 554.764771,431.300873 
	C554.788940,506.542480 554.813232,581.784119 554.837219,657.025696 
	C554.845276,682.369141 554.852417,707.712585 554.940979,733.517090 
z"/>
<path fill="#055704" opacity="1.000000" stroke="none" 
	d="
M554.743408,794.677063 
	C554.849915,796.714294 554.729431,798.505127 554.591614,800.552856 
	C500.335419,800.552856 446.315979,800.552856 391.417450,800.552856 
	C391.417450,795.075195 391.417450,789.504089 391.861206,783.379761 
	C431.894745,782.818848 471.484589,782.811096 511.356049,783.000000 
	C513.848816,785.347229 515.748718,788.023499 518.328796,789.550659 
	C526.397217,794.326416 533.468323,791.531128 539.902771,785.847290 
	C544.773926,788.708435 549.645142,791.569519 554.743408,794.677063 
z"/>
<path fill="#030200" opacity="1.000000" stroke="none" 
	d="
M539.942261,785.466614 
	C533.468323,791.531128 526.397217,794.326416 518.328796,789.550659 
	C515.748718,788.023499 513.848816,785.347229 511.402557,782.554443 
	C511.433136,776.762024 511.698822,771.611816 512.267090,766.313782 
	C514.380554,764.611877 516.191467,763.057861 518.430969,761.462158 
	C524.117859,761.256470 529.376160,761.092529 534.634521,760.928589 
	C536.292053,762.574158 537.949524,764.219666 539.932373,765.997986 
	C542.480347,772.482849 543.537415,778.817932 539.942261,785.466614 
z"/>
<path fill="#055603" opacity="1.000000" stroke="none" 
	d="
M224.375488,783.002319 
	C224.375488,788.777222 224.375488,794.552124 224.375488,800.849854 
	C184.885773,800.849854 145.894394,800.849854 106.431961,800.881348 
	C103.347221,796.776306 100.733536,792.639893 98.171890,787.878479 
	C99.513741,785.759216 100.803551,784.264893 102.560730,782.751953 
	C139.822311,782.730286 176.616516,782.719482 213.410721,782.736572 
	C217.065674,782.738220 220.720566,782.909668 224.375488,783.002319 
z"/>
<path fill="#030200" opacity="1.000000" stroke="none" 
	d="
M102.093369,782.770569 
	C100.803551,784.264893 99.513741,785.759216 98.068527,787.539917 
	C91.422256,791.373535 84.790108,791.616699 77.653412,788.773438 
	C77.035439,788.262146 76.898170,787.571533 76.519836,787.058716 
	C68.840973,776.649658 69.352188,770.123352 78.790161,760.638367 
	C84.263306,760.295410 89.552971,760.196838 95.453995,760.307556 
	C97.959549,762.555359 99.853760,764.593933 101.788567,767.074524 
	C101.917229,772.601257 102.005302,777.685913 102.093369,782.770569 
z"/>
<path fill="#075603" opacity="1.000000" stroke="none" 
	d="
M61.588722,68.966080 
	C61.039486,67.240479 60.735512,65.785255 60.584839,64.314331 
	C60.188644,60.446491 61.912899,59.125977 65.825890,59.152935 
	C87.489540,59.302219 109.154762,59.223782 130.819443,59.223660 
	C159.816788,59.223499 188.814133,59.223625 217.811478,59.223633 
	C219.766449,59.223633 221.721420,59.223637 224.161194,59.223637 
	C224.161194,65.338394 224.161194,70.976944 223.674225,77.137924 
	C182.087082,77.647667 140.986923,77.634987 99.680649,77.387970 
	C96.914352,75.127449 94.630959,72.472801 91.739288,71.199188 
	C84.590126,68.050362 78.231735,70.482826 72.541557,75.235275 
	C68.995651,73.233284 65.449753,71.231293 61.588722,68.966080 
z"/>
<path fill="#030200" opacity="1.000000" stroke="none" 
	d="
M72.462250,75.615692 
	C78.231735,70.482826 84.590126,68.050362 91.739288,71.199188 
	C94.630959,72.472801 96.914352,75.127449 99.676826,77.834763 
	C99.936562,83.599464 99.994003,88.683037 99.779892,93.976624 
	C97.642647,96.114098 95.776962,98.041565 93.911278,99.969032 
	C88.643532,102.075890 83.345322,102.622887 77.629128,100.254189 
	C76.708748,99.802597 76.149895,99.376846 75.249001,98.861938 
	C69.243111,91.714958 67.348656,84.239441 72.462250,75.615692 
z"/>
<path fill="#055704" opacity="1.000000" stroke="none" 
	d="
M266.285767,800.927002 
	C252.813034,800.990662 239.701752,800.990662 226.100021,800.990662 
	C226.100021,794.847107 226.100021,789.392334 226.561981,783.381592 
	C280.426117,782.795410 333.828278,782.763916 387.230438,782.745789 
	C388.055969,782.745483 388.881561,782.910400 389.707123,782.998169 
	C389.707123,788.770935 389.707123,794.543762 389.707123,800.882507 
	C376.396820,800.882507 363.644135,800.882507 350.422241,800.935913 
	C349.709229,800.958008 349.465454,800.926758 348.428528,800.902222 
	C320.880188,800.936951 294.124969,800.964966 267.369781,800.993042 
	C267.128937,800.949768 266.888092,800.906555 266.285767,800.927002 
z"/>
<path fill="#F1F4F0" opacity="1.000000" stroke="none" 
	d="
M267.602631,801.323608 
	C294.124969,800.964966 320.880188,800.936951 348.063110,800.951172 
	C347.458130,801.319519 346.425934,801.928406 345.392548,801.930481 
	C320.020386,801.980713 294.648071,801.968262 269.275787,801.951111 
	C268.795624,801.950745 268.315582,801.757446 267.602631,801.323608 
z"/>
<path fill="#085603" opacity="1.000000" stroke="none" 
	d="
M264.538513,59.084972 
	C264.999908,58.995796 265.479767,59.129993 265.724762,59.085060 
	C266.216370,59.080963 266.462952,59.121796 267.405640,59.141914 
	C268.319092,59.086510 268.536438,59.051811 269.071106,59.089523 
	C295.313843,59.115330 321.239319,59.068726 347.500488,59.071655 
	C348.061401,59.099144 348.286560,59.077095 348.511719,59.055050 
	C348.751495,59.086575 348.991302,59.118095 349.589294,59.093365 
	C350.124969,59.067009 350.302460,59.096905 351.202637,59.150543 
	C363.952087,59.124439 375.978851,59.074589 388.005615,59.024742 
	C388.353180,59.192749 388.700714,59.360756 389.272430,60.085594 
	C389.487488,66.233124 389.478394,71.823814 389.048889,77.522491 
	C335.159698,77.657356 281.690826,77.685081 228.221985,77.701553 
	C227.561356,77.701759 226.900711,77.557922 226.240067,77.481323 
	C226.240067,71.672638 226.240067,65.863953 226.240067,59.174149 
	C238.998566,59.174149 251.537857,59.174149 264.538513,59.084972 
z"/>
<path fill="#A6C3A6" opacity="1.000000" stroke="none" 
	d="
M348.231445,58.818275 
	C348.286560,59.077095 348.061401,59.099144 347.126678,59.104630 
	C320.529358,59.064423 294.641571,59.040771 268.753815,59.017117 
	C268.536438,59.051811 268.319092,59.086510 267.776428,59.086380 
	C268.536926,58.775082 269.622375,58.259075 270.708649,58.257275 
	C295.808563,58.215714 320.908600,58.227425 346.008606,58.248505 
	C346.656219,58.249050 347.303650,58.465652 348.231445,58.818275 
z"/>
<path fill="#ABC7AB" opacity="1.000000" stroke="none" 
	d="
M554.786316,430.854401 
	C548.163147,431.204315 541.561401,431.107727 534.409058,430.639923 
	C533.912598,429.767334 533.966858,429.266022 534.021118,428.764679 
	C540.616882,428.736816 547.212585,428.708954 554.257141,428.651978 
	C554.739868,429.217865 554.773865,429.812897 554.786316,430.854401 
z"/>
<path fill="#DA0200" opacity="1.000000" stroke="none" 
	d="
M225.898743,77.605026 
	C226.900711,77.557922 227.561356,77.701759 228.221985,77.701553 
	C281.690826,77.685081 335.159698,77.657356 389.417786,77.639664 
	C390.709076,77.561684 391.211090,77.474503 391.713104,77.387314 
	C393.865082,77.499489 396.016907,77.706505 398.169067,77.709732 
	C435.442139,77.765549 472.715210,77.796303 510.445007,77.884262 
	C510.328979,82.966019 509.756256,87.996040 508.651642,93.390236 
	C475.477051,93.747971 442.834320,93.727409 410.191620,93.747612 
	C404.037292,93.751427 397.883087,93.917580 391.356018,93.900589 
	C390.478241,93.863686 389.973236,93.935020 389.041504,93.910522 
	C335.327850,93.789116 282.040924,93.762321 228.754013,93.749260 
	C227.928848,93.749054 227.103653,93.918190 225.937912,93.853104 
	C225.112198,93.801353 224.627045,93.904778 223.673584,93.904839 
	C182.154007,93.789848 141.102722,93.778229 100.051453,93.766609 
	C99.994003,88.683037 99.936562,83.599464 99.882935,78.069099 
	C140.986923,77.634987 182.087082,77.647667 223.658295,77.573883 
	C224.605362,77.567871 225.081375,77.648308 225.898743,77.605026 
z"/>
<path fill="#DA0200" opacity="1.000000" stroke="none" 
	d="
M390.140381,782.921875 
	C388.881561,782.910400 388.055969,782.745483 387.230438,782.745789 
	C333.828278,782.763916 280.426117,782.795410 226.569519,782.914001 
	C225.731903,782.971008 225.348679,782.939636 224.670471,782.955322 
	C220.720566,782.909668 217.065674,782.738220 213.410721,782.736572 
	C176.616516,782.719482 139.822311,782.730286 102.560745,782.751953 
	C102.005302,777.685913 101.917229,772.601257 102.279282,767.104492 
	C141.622467,766.696350 180.515533,766.704041 219.408600,766.691040 
	C221.061249,766.690491 222.713837,766.497192 224.501099,766.336792 
	C224.635727,766.280029 224.926712,766.251404 225.119476,766.449829 
	C225.528381,766.421387 225.744507,766.194641 226.047272,765.967529 
	C226.133896,765.967285 226.172623,766.136169 226.607330,766.299072 
	C272.760010,766.513062 318.477966,766.575134 364.195953,766.605469 
	C372.671265,766.611084 381.146667,766.488953 389.786682,766.456909 
	C390.485107,766.458557 391.018890,766.429016 392.043335,766.487183 
	C432.344208,766.537048 472.154388,766.499329 511.964539,766.461670 
	C511.698822,771.611816 511.433136,776.762024 511.120911,782.357788 
	C471.484589,782.811096 431.894745,782.818848 391.872437,782.912659 
	C391.151154,782.947632 390.862396,782.896545 390.140381,782.921875 
z"/>
<path fill="#B3CCB3" opacity="1.000000" stroke="none" 
	d="
M505.510315,58.016159 
	C505.976624,58.023621 505.993286,58.520229 505.993225,58.768677 
	C480.093567,59.082008 454.193970,59.158573 428.294312,59.206451 
	C416.836761,59.227631 405.379120,59.190720 393.457916,59.102867 
	C394.898987,58.684059 396.803192,58.047817 398.708405,58.044754 
	C434.153534,57.987774 469.598785,58.006157 505.510315,58.016159 
z"/>
<path fill="#B3CCB3" opacity="1.000000" stroke="none" 
	d="
M391.710114,76.962585 
	C391.211090,77.474503 390.709076,77.561684 389.838165,77.531693 
	C389.478394,71.823814 389.487488,66.233124 389.520996,60.234596 
	C389.784760,59.273735 390.024078,58.720707 390.263428,58.167683 
	C390.612274,58.591820 390.961121,59.015953 391.464600,59.664917 
	C391.648499,65.439117 391.677826,70.988487 391.710114,76.962585 
z"/>
<path fill="#B3CCB3" opacity="1.000000" stroke="none" 
	d="
M387.688782,58.754555 
	C375.978851,59.074589 363.952087,59.124439 351.464417,59.084740 
	C351.742950,58.675461 352.484589,58.072632 353.221466,58.078377 
	C364.605347,58.167126 375.988556,58.334908 387.688782,58.754555 
z"/>
<path fill="#005500" opacity="1.000000" stroke="none" 
	d="
M512.267090,766.313782 
	C472.154388,766.499329 432.344208,766.537048 392.041260,765.992798 
	C391.477203,749.868958 391.406006,734.327209 391.208069,718.463745 
	C390.772552,718.035400 390.463745,717.835449 390.154938,717.835449 
	C335.747162,717.828979 281.339417,717.830811 226.931686,717.898315 
	C226.085785,717.899353 225.240875,718.717224 224.353439,719.610840 
	C224.329727,735.509766 224.348083,750.951660 224.366455,766.393616 
	C222.713837,766.497192 221.061249,766.690491 219.408600,766.691040 
	C180.515533,766.704041 141.622467,766.696350 102.238693,766.662476 
	C99.853760,764.593933 97.959549,762.555359 95.855133,760.253540 
	C95.565063,758.162292 95.418404,756.334351 95.414864,754.506226 
	C95.208450,647.805786 95.013763,541.105286 94.820923,434.404816 
	C94.819420,433.572845 94.859055,432.740784 95.354767,431.370728 
	C152.346695,430.832672 208.863342,430.832672 265.560150,430.832672 
	C266.234589,440.091858 268.600708,448.100800 274.099304,455.310822 
	C290.207153,478.030884 324.075500,477.112213 339.567505,458.531097 
	C346.880707,450.693512 349.988403,441.368042 351.064026,430.997803 
	C406.637787,430.997803 461.761444,430.997803 516.955078,431.525360 
	C517.046387,434.385834 517.080566,436.718750 517.087219,439.051697 
	C517.393738,546.535767 517.697998,654.019836 518.002441,761.503906 
	C516.191467,763.057861 514.380554,764.611877 512.267090,766.313782 
z"/>
<path fill="#005500" opacity="1.000000" stroke="none" 
	d="
M391.728821,94.008820 
	C397.883087,93.917580 404.037292,93.751427 410.191620,93.747612 
	C442.834320,93.727409 475.477051,93.747971 508.602325,93.784653 
	C511.322662,96.101418 513.560425,98.387939 516.036499,101.402786 
	C516.511536,184.045578 516.775330,265.959991 516.969482,347.874542 
	C517.033386,374.843140 516.917236,401.812164 516.422180,428.778503 
	C461.104675,428.776062 406.248444,428.776062 351.052734,428.776062 
	C349.578796,415.744720 344.812714,404.743164 334.137085,396.558838 
	C314.493530,381.909546 287.386261,385.553223 274.526337,404.465424 
	C268.859375,411.735107 266.292053,419.847198 265.505157,428.924103 
	C208.457489,428.924103 151.735931,428.924103 95.014359,428.924103 
	C94.938881,426.597992 94.803040,424.272064 94.796593,421.945770 
	C94.500206,314.936859 94.215118,207.927887 93.919998,100.443985 
	C95.776962,98.041565 97.642647,96.114098 99.779892,93.976624 
	C141.102722,93.778229 182.154007,93.789848 223.677963,94.373024 
	C224.235123,110.308479 224.319611,125.672386 224.400375,141.197388 
	C224.396667,141.358475 224.630051,141.579147 224.630051,141.579147 
	C224.630051,141.579147 224.943146,141.507584 225.219513,141.665802 
	C225.700943,141.769089 225.906006,141.714157 226.490234,141.763641 
	C280.651886,141.891541 334.434357,141.920059 388.216797,141.901367 
	C389.262848,141.901001 390.308716,141.345718 391.548706,140.674652 
	C391.738098,124.869591 391.733459,109.439201 391.728821,94.008820 
z"/>
<path fill="#DEDEDE" opacity="1.000000" stroke="none" 
	d="
M94.987907,429.114624 
	C151.735931,428.924103 208.457489,428.924103 265.505157,428.924103 
	C266.292053,419.847198 268.859375,411.735107 274.607056,404.950256 
	C275.008911,405.521423 275.061401,405.844849 274.988892,406.491150 
	C270.290405,413.412018 268.025452,420.759155 267.045380,429.137604 
	C280.205231,429.137604 292.666382,429.137604 305.051697,429.231567 
	C304.952728,429.755188 304.929504,430.184845 304.450928,430.699646 
	C291.964661,430.784790 279.933746,430.784790 267.838501,430.784790 
	C267.538452,439.920410 270.761078,447.086731 274.917480,454.122986 
	C274.531036,454.549927 274.280426,454.764801 274.029846,454.979675 
	C268.600708,448.100800 266.234589,440.091858 265.560150,430.832672 
	C208.863342,430.832672 152.346695,430.832672 95.425583,430.832703 
	C95.001228,430.323517 94.981346,429.814301 94.987907,429.114624 
z"/>
<path fill="#DD0100" opacity="1.000000" stroke="none" 
	d="
M516.883423,428.780975 
	C516.917236,401.812164 517.033386,374.843140 516.969482,347.874542 
	C516.775330,265.959991 516.511536,184.045578 516.261353,101.673676 
	C521.563782,102.913834 526.872742,103.761581 532.528992,101.037216 
	C533.045288,172.964752 533.150330,244.939240 533.338928,316.913513 
	C533.435852,353.899445 533.681580,390.885010 533.940613,428.317688 
	C533.966858,429.266022 533.912598,429.767334 533.942200,430.642883 
	C533.952881,432.845398 533.813049,434.673828 533.816040,436.501953 
	C533.981262,537.164001 534.154785,637.825989 534.342102,738.487976 
	C534.355408,745.653870 534.478760,752.819458 534.592773,760.456909 
	C529.376160,761.092529 524.117859,761.256470 518.430969,761.462158 
	C517.697998,654.019836 517.393738,546.535767 517.087219,439.051697 
	C517.080566,436.718750 517.046387,434.385834 517.005249,431.306030 
	C516.951477,429.966431 516.917480,429.373718 516.883423,428.780975 
z"/>
<path fill="#AFC9AF" opacity="1.000000" stroke="none" 
	d="
M269.071106,59.089523 
	C294.641571,59.040771 320.529358,59.064423 346.790955,59.055096 
	C321.239319,59.068726 295.313843,59.115330 269.071106,59.089523 
z"/>
<path fill="#035602" opacity="1.000000" stroke="none" 
	d="
M226.278473,94.008293 
	C227.103653,93.918190 227.928848,93.749054 228.754013,93.749260 
	C282.040924,93.762321 335.327850,93.789116 389.047119,94.378662 
	C389.479431,109.698967 389.479431,124.455276 389.479431,139.276062 
	C334.650238,139.276062 280.614777,139.276062 226.278473,139.276062 
	C226.278473,123.947739 226.278473,108.978020 226.278473,94.008293 
z"/>
<path fill="#B3CCB3" opacity="1.000000" stroke="none" 
	d="
M225.937912,93.853104 
	C226.278473,108.978020 226.278473,123.947739 226.278473,139.276062 
	C280.614777,139.276062 334.650238,139.276062 389.479431,139.276062 
	C389.479431,124.455276 389.479431,109.698967 389.473816,94.474503 
	C389.973236,93.935020 390.478241,93.863686 391.356018,93.900589 
	C391.733459,109.439201 391.738098,124.869591 391.052734,140.664062 
	C337.066284,141.013840 283.769775,140.994186 230.473297,141.013519 
	C229.019135,141.014053 227.565125,141.434570 226.111053,141.659241 
	C225.906006,141.714157 225.700943,141.769089 225.152832,141.563446 
	C224.809799,141.302856 224.404083,141.036285 224.404083,141.036285 
	C224.319611,125.672386 224.235123,110.308479 224.146271,94.476395 
	C224.627045,93.904778 225.112198,93.801353 225.937912,93.853104 
z"/>
<path fill="#035502" opacity="1.000000" stroke="none" 
	d="
M389.622009,766.425781 
	C381.146667,766.488953 372.671265,766.611084 364.195953,766.605469 
	C318.477966,766.575134 272.760010,766.513062 226.581085,765.823303 
	C226.166382,750.220703 226.212646,735.256714 226.710754,720.274780 
	C241.978500,720.231384 256.794403,720.199768 271.610291,720.181824 
	C310.730621,720.134399 349.850952,720.092834 389.189362,720.470581 
	C389.478943,736.070129 389.550476,751.247925 389.622009,766.425781 
z"/>
<path fill="#DEDEDE" opacity="1.000000" stroke="none" 
	d="
M389.786682,766.456909 
	C389.550476,751.247925 389.478943,736.070129 389.406921,720.199585 
	C390.049225,719.266479 390.692017,719.025940 391.334808,718.785400 
	C391.406006,734.327209 391.477203,749.868958 391.550537,765.905151 
	C391.018890,766.429016 390.485107,766.458557 389.786682,766.456909 
z"/>
<path fill="#F1F4F0" opacity="1.000000" stroke="none" 
	d="
M226.258911,720.292725 
	C226.212646,735.256714 226.166382,750.220703 226.146362,765.660400 
	C226.172623,766.136169 226.133896,765.967285 225.863739,765.970337 
	C225.333984,765.976501 225.111694,766.069214 224.926712,766.251404 
	C224.926712,766.251404 224.635727,766.280029 224.501099,766.336792 
	C224.348083,750.951660 224.329727,735.509766 224.647476,719.660767 
	C225.408691,719.600037 225.833786,719.946411 226.258911,720.292725 
z"/>
<path fill="#A6C3A6" opacity="1.000000" stroke="none" 
	d="
M225.119476,766.449829 
	C225.111694,766.069214 225.333984,765.976501 225.777100,765.970581 
	C225.744507,766.194641 225.528381,766.421387 225.119476,766.449829 
z"/>
<path fill="#B3CCB3" opacity="1.000000" stroke="none" 
	d="
M516.422241,428.778503 
	C516.917480,429.373718 516.951477,429.966431 516.935303,430.778503 
	C461.761444,430.997803 406.637787,430.997803 351.064026,430.997803 
	C349.988403,441.368042 346.880707,450.693512 339.453857,458.031464 
	C338.994293,457.406555 338.929565,457.071167 339.010010,456.434204 
	C345.071075,449.016296 348.222595,440.877533 348.541473,430.726227 
	C335.835663,430.726227 323.425415,430.726227 311.016266,430.441406 
	C311.011841,429.776825 311.006348,429.397064 311.461517,428.924133 
	C324.060059,428.830902 336.197998,428.830902 348.555481,428.830902 
	C347.836914,415.148865 341.919617,405.278809 332.842285,397.191040 
	C333.665009,396.989532 333.995544,396.915039 334.326111,396.840576 
	C344.812714,404.743164 349.578796,415.744720 351.052734,428.776062 
	C406.248444,428.776062 461.104675,428.776062 516.422241,428.778503 
z"/>
<path fill="#A6C3A6" opacity="1.000000" stroke="none" 
	d="
M226.710754,720.274780 
	C225.833786,719.946411 225.408691,719.600037 224.689545,719.203735 
	C225.240875,718.717224 226.085785,717.899353 226.931686,717.898315 
	C281.339417,717.830811 335.747162,717.828979 390.154938,717.835449 
	C390.463745,717.835449 390.772552,718.035400 391.208069,718.463745 
	C390.692017,719.025940 390.049225,719.266479 389.188843,719.777954 
	C349.850952,720.092834 310.730621,720.134399 271.610291,720.181824 
	C256.794403,720.199768 241.978500,720.231384 226.710754,720.274780 
z"/>
<path fill="#A6C3A6" opacity="1.000000" stroke="none" 
	d="
M338.864838,456.735779 
	C338.929565,457.071167 338.994293,457.406555 339.172668,458.241577 
	C324.075500,477.112213 290.207153,478.030884 274.099304,455.310791 
	C274.280426,454.764801 274.531036,454.549927 275.209961,454.286194 
	C276.958832,455.720367 278.174591,457.314972 279.616302,458.668915 
	C291.588806,469.912262 305.665710,473.548370 321.064697,468.027802 
	C327.518066,465.714294 332.961975,460.584961 338.864838,456.735779 
z"/>
<path fill="#ABC7AB" opacity="1.000000" stroke="none" 
	d="
M226.490234,141.763657 
	C227.565125,141.434570 229.019135,141.014053 230.473297,141.013519 
	C283.769775,140.994186 337.066284,141.013840 390.858704,141.038757 
	C390.308716,141.345718 389.262848,141.901001 388.216797,141.901367 
	C334.434357,141.920059 280.651886,141.891541 226.490234,141.763657 
z"/>
<path fill="#A6C3A6" opacity="1.000000" stroke="none" 
	d="
M334.137085,396.558838 
	C333.995544,396.915039 333.665009,396.989532 332.515076,397.101471 
	C327.020691,395.059357 322.530701,392.191803 317.637177,391.042542 
	C300.389709,386.992004 286.354218,392.869690 275.113892,406.168304 
	C275.061401,405.844849 275.008911,405.521423 274.875671,404.713135 
	C287.386261,385.553223 314.493530,381.909546 334.137085,396.558838 
z"/>
<path fill="#ABC7AB" opacity="1.000000" stroke="none" 
	d="
M224.400375,141.197388 
	C224.404083,141.036285 224.809799,141.302856 224.876465,141.405212 
	C224.943146,141.507584 224.630051,141.579147 224.630051,141.579147 
	C224.630051,141.579147 224.396667,141.358475 224.400375,141.197388 
z"/>
<path fill="#035602" opacity="1.000000" stroke="none" 
	d="
M339.010010,456.434204 
	C332.961975,460.584961 327.518066,465.714294 321.064697,468.027802 
	C305.665710,473.548370 291.588806,469.912262 279.616302,458.668915 
	C278.174591,457.314972 276.958832,455.720367 275.345825,454.074097 
	C270.761078,447.086731 267.538452,439.920410 267.838501,430.784790 
	C279.933746,430.784790 291.964661,430.784790 304.681274,430.820496 
	C307.249725,430.812897 309.132477,430.769562 311.015198,430.726227 
	C323.425415,430.726227 335.835663,430.726227 348.541473,430.726227 
	C348.222595,440.877533 345.071075,449.016296 339.010010,456.434204 
z"/>
<path fill="#035602" opacity="1.000000" stroke="none" 
	d="
M274.988892,406.491150 
	C286.354218,392.869690 300.389709,386.992004 317.637177,391.042542 
	C322.530701,392.191803 327.020691,395.059357 332.022949,397.228485 
	C341.919617,405.278809 347.836914,415.148865 348.555481,428.830902 
	C336.197998,428.830902 324.060059,428.830902 311.108276,428.868286 
	C308.572113,428.982971 306.849792,429.060272 305.127502,429.137604 
	C292.666382,429.137604 280.205231,429.137604 267.045380,429.137604 
	C268.025452,420.759155 270.290405,413.412018 274.988892,406.491150 
z"/>
<path fill="#ABC7AB" opacity="1.000000" stroke="none" 
	d="
M305.051697,429.231567 
	C306.849792,429.060272 308.572113,428.982971 310.647644,428.961487 
	C311.006348,429.397064 311.011841,429.776825 311.016266,430.441406 
	C309.132477,430.769562 307.249725,430.812897 305.136658,430.735382 
	C304.929504,430.184845 304.952728,429.755188 305.051697,429.231567 
z"/>
</svg>