<?xml version="1.0" encoding="UTF-8" standalone="no"?>
<!-- Created with Inkscape (http://www.inkscape.org/) -->
<svg
   xmlns:dc="http://purl.org/dc/elements/1.1/"
   xmlns:cc="http://creativecommons.org/ns#"
   xmlns:rdf="http://www.w3.org/1999/02/22-rdf-syntax-ns#"
   xmlns:svg="http://www.w3.org/2000/svg"
   xmlns="http://www.w3.org/2000/svg"
   xmlns:sodipodi="http://sodipodi.sourceforge.net/DTD/sodipodi-0.dtd"
   xmlns:inkscape="http://www.inkscape.org/namespaces/inkscape"
   id="svg2440"
   sodipodi:version="0.32"
   inkscape:version="0.46"
   width="128"
   height="128"
   version="1.0"
   sodipodi:docname="halt.svg"
   inkscape:output_extension="org.inkscape.output.svg.inkscape">
  <metadata
     id="metadata2445">
    <rdf:RDF>
      <cc:Work
         rdf:about="">
        <dc:format>image/svg+xml</dc:format>
        <dc:type
           rdf:resource="http://purl.org/dc/dcmitype/StillImage" />
      </cc:Work>
    </rdf:RDF>
  </metadata>
  <defs
     id="defs2443">
    <inkscape:perspective
       sodipodi:type="inkscape:persp3d"
       inkscape:vp_x="0 : 526.18109 : 1"
       inkscape:vp_y="0 : 1000 : 0"
       inkscape:vp_z="744.09448 : 526.18109 : 1"
       inkscape:persp3d-origin="372.04724 : 350.78739 : 1"
       id="perspective2447" />
  </defs>
  <sodipodi:namedview
     inkscape:window-height="842"
     inkscape:window-width="1440"
     inkscape:pageshadow="2"
     inkscape:pageopacity="0.0"
     guidetolerance="10.0"
     gridtolerance="10.0"
     objecttolerance="10.0"
     borderopacity="1.0"
     bordercolor="#666666"
     pagecolor="#ffffff"
     id="base"
     showgrid="false"
     showborder="true"
     inkscape:showpageshadow="false"
     inkscape:zoom="4.9921875"
     inkscape:cx="64"
     inkscape:cy="64.140219"
     inkscape:window-x="-5"
     inkscape:window-y="-3"
     inkscape:current-layer="svg2440" />
  <path
     style="fill:#ff0000;fill-opacity:1"
     d="M 63.84375,4.8125 C 62.182852,4.6003319 60.50788,5.1090072 59.46875,6.34375 C 58.974267,6.9313142 58.802458,7.0906159 58.6875,7.34375 C 58.572542,7.5968841 58.409682,8.1839738 58.3125,9.625 C 58.118137,12.507052 58.104374,18.507468 58.03125,31.375 L 57.90625,58.75 C 57.906388,59.509449 57.290699,60.125138 56.53125,60.125 L 55.0625,60.125 L 53.59375,60.125 C 52.834301,60.125138 52.218612,59.509449 52.21875,58.75 L 52.09375,33.34375 C 52.020032,21.477044 52.021331,15.980699 51.8125,13.34375 C 51.708085,12.025275 51.532071,11.497131 51.40625,11.25 C 51.280429,11.002869 51.065107,10.795432 50.53125,10.1875 C 49.570648,9.0936056 48.652183,8.68146 47.3125,8.6875 C 45.595212,8.6952434 44.435818,9.0186558 43.59375,9.625 C 42.751682,10.231344 42.123386,11.192057 41.65625,12.75 C 41.745816,12.45129 41.67539,12.729158 41.65625,13 C 41.63711,13.270842 41.613029,13.652777 41.59375,14.15625 C 41.555191,15.163197 41.502473,16.629806 41.46875,18.46875 C 41.401303,22.146638 41.3589,27.395487 41.3125,34.03125 L 41.15625,58.75 C 41.156388,59.509449 40.540699,60.125138 39.78125,60.125 L 38.46875,60.125 L 37.125,60.125 C 36.377593,60.125326 35.766854,59.528467 35.75,58.78125 L 35.625,44.5625 C 35.549396,38.741852 35.492487,35.883363 35.25,34.59375 C 35.128756,33.948944 35.018435,33.775974 34.84375,33.5625 C 34.669065,33.349026 34.328585,33.075721 33.71875,32.59375 C 32.184896,31.3815 32.291136,31.400501 30.09375,31.40625 C 28.849768,31.409505 28.571628,31.451803 27.8125,31.875 C 26.832873,32.421115 25.541649,34.095611 25.28125,35.0625 C 25.346217,34.821268 25.300347,35.133137 25.28125,35.46875 C 25.262153,35.804363 25.234679,36.305998 25.21875,36.9375 C 25.186891,38.200505 25.171404,40.044299 25.15625,42.5 C 25.125942,47.411403 25.122236,54.774072 25.15625,64.9375 C 25.210502,81.148558 25.19022,88.639433 25.40625,92.625 C 25.62228,96.610567 25.97991,96.908276 27,99.59375 C 30.821662,109.65459 37.714672,116.41507 48.28125,120.4375 C 50.929114,121.44547 55.707491,122.66602 57.75,122.90625 C 61.534539,123.35138 66.326106,123.06757 70.75,122.09375 C 77.550267,120.59681 82.625226,118.08392 88.28125,113.46875 C 91.643903,110.7249 92.501547,109.82858 95.21875,105.96875 C 97.689474,102.45905 98.625136,100.53716 100,96.3125 L 101.125,92.8125 L 101.21875,66.46875 C 101.24362,58.592997 101.24602,51.91954 101.21875,47.21875 C 101.20512,44.868355 101.18129,43.024382 101.15625,41.75 C 101.15039,41.451875 101.16265,41.294291 101.15625,41.0625 C 100.77217,41.108306 100.36573,41.156254 99.875,41.25 C 98.558564,41.501481 97.024839,41.93925 96.5,42.1875 C 94.922744,42.933541 93.115453,44.855044 91.875,47.4375 L 90.875,49.53125 L 90.75,59.4375 L 90.625,69.6875 C 90.608146,70.434717 89.997407,71.031576 89.25,71.03125 L 87.90625,71.03125 L 86.5625,71.03125 C 85.803051,71.031388 85.187362,70.415699 85.1875,69.65625 L 85.0625,40 C 85.007159,27.660474 84.947298,20.22093 84.875,15.8125 C 84.838851,13.608285 84.800566,12.151347 84.75,11.25 C 84.724717,10.799326 84.711349,10.491501 84.6875,10.3125 C 84.663651,10.133499 84.576754,10.033388 84.75,10.34375 C 84.013192,9.0237965 83.337025,8.2397119 82.6875,7.75 C 82.037975,7.2602881 81.353336,7.0168825 80.28125,6.90625 C 78.294296,6.7012112 76.455765,7.6554701 75.1875,9.8125 L 74.65625,10.75 L 74.53125,32.5625 L 74.40625,58.75 C 74.406388,59.509449 73.790699,60.125138 73.03125,60.125 L 71.5625,60.125 L 70.09375,60.125 C 69.334301,60.125138 68.718612,59.509449 68.71875,58.75 L 68.59375,31.5 L 68.4375,8.5625 L 67.875,7.4375 C 67.080644,5.9299439 65.513964,5.0258581 63.84375,4.8125 z"
     id="path3178"
     sodipodi:nodetypes="cssscccccccssssssssscccccccssssssssssssssssscccsscsscccccccccsssssscccccccccccc" />
</svg>
