<?xml version="1.0" encoding="UTF-8" standalone="no"?>
<!-- Generator: Adobe Illustrator 18.1.1, SVG Export Plug-In . SVG Version: 6.00 Build 0)  -->

<svg
   xmlns:dc="http://purl.org/dc/elements/1.1/"
   xmlns:cc="http://creativecommons.org/ns#"
   xmlns:rdf="http://www.w3.org/1999/02/22-rdf-syntax-ns#"
   xmlns:svg="http://www.w3.org/2000/svg"
   xmlns="http://www.w3.org/2000/svg"
   xmlns:sodipodi="http://sodipodi.sourceforge.net/DTD/sodipodi-0.dtd"
   xmlns:inkscape="http://www.inkscape.org/namespaces/inkscape"
   version="1.1"
   id="Capa_1"
   x="0px"
   y="0px"
   viewBox="0 0 28.477 28.477"
   style="enable-background:new 0 0 28.477 28.477;"
   xml:space="preserve"
   inkscape:version="0.91 r13725"
   sodipodi:docname="antenna12.svg"><metadata
     id="metadata45"><rdf:RDF><cc:Work
         rdf:about=""><dc:format>image/svg+xml</dc:format><dc:type
           rdf:resource="http://purl.org/dc/dcmitype/StillImage" /><dc:title></dc:title></cc:Work></rdf:RDF></metadata><defs
     id="defs43" /><sodipodi:namedview
     pagecolor="#ffffff"
     bordercolor="#666666"
     borderopacity="1"
     objecttolerance="10"
     gridtolerance="10"
     guidetolerance="10"
     inkscape:pageopacity="0"
     inkscape:pageshadow="2"
     inkscape:window-width="1916"
     inkscape:window-height="1056"
     id="namedview41"
     showgrid="false"
     inkscape:zoom="8.28739"
     inkscape:cx="-5.0679406"
     inkscape:cy="14.2385"
     inkscape:window-x="0"
     inkscape:window-y="20"
     inkscape:window-maximized="0"
     inkscape:current-layer="Capa_1" /><g
     id="g3"
     style="opacity:0.25"><path
       d="M14.286,9.502c-1.557,0-2.824,1.263-2.824,2.823c0,0.799,0.338,1.519,0.872,2.032v14.12h4.001v-14.22   c0.479-0.505,0.775-1.183,0.775-1.932C17.11,10.766,15.847,9.502,14.286,9.502z"
       id="path5"
       style="" /><path
       d="M14.238,0c-7.124,0-12.9,5.775-12.9,12.899c0,4.538,2.348,8.52,5.891,10.819c0,0,0.326,0.153,0.326-0.401   c0-0.556,0-1.582,0-1.774c0-0.194-0.326-0.397-0.326-0.397c-2.345-1.996-3.86-4.928-3.86-8.246c0-6.004,4.867-10.872,10.87-10.872   S25.111,6.896,25.111,12.9c0,3.229-1.438,6.1-3.673,8.092c0,0-0.324,0.287-0.324,0.516s0,1.393,0,1.788s0.324,0.31,0.324,0.31   c3.438-2.316,5.702-6.248,5.702-10.706C27.14,5.775,21.362,0,14.238,0z"
       id="path7"
       style="" /><path
       d="M14.286,4.29c-4.49,0-8.132,3.641-8.132,8.132c0,3.078,1.711,5.752,4.231,7.134c0,0,0.417,0.204,0.417-0.295   s0-1.539,0-1.787c0-0.25-0.417-0.465-0.417-0.465c-1.305-1.11-2.149-2.742-2.149-4.587c0-3.342,2.708-6.05,6.05-6.05   c3.343,0,6.051,2.708,6.051,6.05c0,1.839-0.84,3.466-2.135,4.575c0,0-0.332,0.228-0.332,0.435c0,0.208,0,1.415,0,1.79   c0,0.373,0.332,0.327,0.332,0.327c2.514-1.384,4.217-4.055,4.217-7.126C22.419,7.931,18.778,4.29,14.286,4.29z"
       id="path9"
       style="" /><g
       id="g11"
       style="" /><g
       id="g13"
       style="" /><g
       id="g15"
       style="" /><g
       id="g17"
       style="" /><g
       id="g19"
       style="" /><g
       id="g21"
       style="" /><g
       id="g23"
       style="" /><g
       id="g25"
       style="" /><g
       id="g27"
       style="" /><g
       id="g29"
       style="" /><g
       id="g31"
       style="" /><g
       id="g33"
       style="" /><g
       id="g35"
       style="" /><g
       id="g37"
       style="" /><g
       id="g39"
       style="" /></g></svg>