<?xml version="1.0" encoding="UTF-8" standalone="no"?>
<!-- Generator: Adobe Illustrator 18.1.1, SVG Export Plug-In . SVG Version: 6.00 Build 0)  -->

<svg
   xmlns:dc="http://purl.org/dc/elements/1.1/"
   xmlns:cc="http://creativecommons.org/ns#"
   xmlns:rdf="http://www.w3.org/1999/02/22-rdf-syntax-ns#"
   xmlns:svg="http://www.w3.org/2000/svg"
   xmlns="http://www.w3.org/2000/svg"
   xmlns:sodipodi="http://sodipodi.sourceforge.net/DTD/sodipodi-0.dtd"
   xmlns:inkscape="http://www.inkscape.org/namespaces/inkscape"
   version="1.1"
   id="Capa_1"
   x="0px"
   y="0px"
   viewBox="0 0 286.375 286.375"
   style="enable-background:new 0 0 286.375 286.375;"
   xml:space="preserve"
   inkscape:version="0.91 r13725"
   sodipodi:docname="radio-connected.svg"><metadata
     id="metadata3468"><rdf:RDF><cc:Work
         rdf:about=""><dc:format>image/svg+xml</dc:format><dc:type
           rdf:resource="http://purl.org/dc/dcmitype/StillImage" /></cc:Work></rdf:RDF></metadata><defs
     id="defs3466" /><sodipodi:namedview
     pagecolor="#ffffff"
     bordercolor="#666666"
     borderopacity="1"
     objecttolerance="10"
     gridtolerance="10"
     guidetolerance="10"
     inkscape:pageopacity="0"
     inkscape:pageshadow="2"
     inkscape:window-width="1603"
     inkscape:window-height="983"
     id="namedview3464"
     showgrid="false"
     inkscape:zoom="0.72806635"
     inkscape:cx="126.64242"
     inkscape:cy="64.261913"
     inkscape:window-x="0"
     inkscape:window-y="0"
     inkscape:window-maximized="0"
     inkscape:current-layer="Capa_1" /><g
     id="Radio__x2F__Podcast"><path
       style="fill-rule:evenodd;clip-rule:evenodd;"
       d="M156.406,118.288c13.217-5.263,22.579-18.147,22.579-33.244   c0-19.774-16.037-35.797-35.797-35.797S107.39,65.271,107.39,85.044c0,15.101,9.367,27.988,22.589,33.248L79.181,260.078   c-2.508,7.018-7.815,21.753,13.528,21.753l-0.036,0.043H193.71l-0.026-0.043c21.334,0,16.028-14.735,13.519-21.753L156.406,118.288   z M261.32,4.501l-22.156,15.158c12.831,18.698,20.363,41.312,20.363,65.7c0,24.391-7.533,47.01-20.363,65.707l22.146,15.163   c15.783-23.016,25.065-50.846,25.065-80.87C286.375,55.338,277.103,27.512,261.32,4.501z M25.056,4.501   C9.273,27.512,0,55.338,0,85.359c0,30.019,9.273,57.846,25.056,80.857l22.155-15.158c-12.83-18.698-20.363-41.311-20.363-65.699   s7.533-47.001,20.363-65.7L25.056,4.501z M80.543,85.044c0-13.131,4.055-25.309,10.959-35.377L69.356,34.508   C59.49,48.889,53.695,66.285,53.695,85.044c0,18.763,5.795,36.155,15.661,50.536l22.146-15.159   C84.598,110.353,80.543,98.175,80.543,85.044z M194.872,49.667c6.905,10.068,10.959,22.246,10.959,35.377   s-4.055,25.304-10.959,35.373l22.146,15.163c9.867-14.384,15.661-31.777,15.661-50.536c0-18.76-5.794-36.155-15.661-50.536   L194.872,49.667z"
       id="path3432" /></g><g
     id="g3434" /><g
     id="g3436" /><g
     id="g3438" /><g
     id="g3440" /><g
     id="g3442" /><g
     id="g3444" /><g
     id="g3446" /><g
     id="g3448" /><g
     id="g3450" /><g
     id="g3452" /><g
     id="g3454" /><g
     id="g3456" /><g
     id="g3458" /><g
     id="g3460" /><g
     id="g3462" /></svg>