<?xml version="1.0" encoding="UTF-8" standalone="no"?>
<!-- Generator: Adobe Illustrator 18.1.1, SVG Export Plug-In . SVG Version: 6.00 Build 0)  -->

<svg
   xmlns:dc="http://purl.org/dc/elements/1.1/"
   xmlns:cc="http://creativecommons.org/ns#"
   xmlns:rdf="http://www.w3.org/1999/02/22-rdf-syntax-ns#"
   xmlns:svg="http://www.w3.org/2000/svg"
   xmlns="http://www.w3.org/2000/svg"
   xmlns:sodipodi="http://sodipodi.sourceforge.net/DTD/sodipodi-0.dtd"
   xmlns:inkscape="http://www.inkscape.org/namespaces/inkscape"
   version="1.1"
   id="Capa_1"
   x="0px"
   y="0px"
   viewBox="0 0 16 16"
   style="enable-background:new 0 0 16 16;"
   xml:space="preserve"
   inkscape:version="0.91 r13725"
   sodipodi:docname="vision-available.svg"
   inkscape:export-filename="/Users/justbuchanan/src/rj/robocup-software/soccer/ui/vision-available.png"
   inkscape:export-xdpi="120.40134"
   inkscape:export-ydpi="120.40134"><metadata
     id="metadata3593"><rdf:RDF><cc:Work
         rdf:about=""><dc:format>image/svg+xml</dc:format><dc:type
           rdf:resource="http://purl.org/dc/dcmitype/StillImage" /><dc:title></dc:title></cc:Work></rdf:RDF></metadata><defs
     id="defs3591" /><sodipodi:namedview
     pagecolor="#ffffff"
     bordercolor="#666666"
     borderopacity="1"
     objecttolerance="10"
     gridtolerance="10"
     guidetolerance="10"
     inkscape:pageopacity="0"
     inkscape:pageshadow="2"
     inkscape:window-width="1419"
     inkscape:window-height="837"
     id="namedview3589"
     showgrid="false"
     inkscape:zoom="20.85965"
     inkscape:cx="10.668877"
     inkscape:cy="11.624116"
     inkscape:window-x="551"
     inkscape:window-y="0"
     inkscape:window-maximized="0"
     inkscape:current-layer="Capa_1" /><g
     id="g3551"
     inkscape:export-xdpi="90"
     inkscape:export-ydpi="90"><g
       id="g3553"><polygon
         style="fill:#030104;"
         points="12,6.287 12,9.714 16,12 16,4   "
         id="polygon3555" /><path
         style="fill:#030104;"
         d="M10,4H1C0.447,4,0,4.447,0,5v6c0,0.553,0.447,1,1,1h9c0.553,0,1-0.447,1-1v-1V9.143V6.857V6V5    C11,4.448,10.553,4,10,4z"
         id="path3557" /></g></g><g
     id="g3559" /><g
     id="g3561" /><g
     id="g3563" /><g
     id="g3565" /><g
     id="g3567" /><g
     id="g3569" /><g
     id="g3571" /><g
     id="g3573" /><g
     id="g3575" /><g
     id="g3577" /><g
     id="g3579" /><g
     id="g3581" /><g
     id="g3583" /><g
     id="g3585" /><g
     id="g3587" /><path
     style="fill:#e74c3c;stroke:none;stroke-width:1px;stroke-linecap:butt;stroke-linejoin:miter;stroke-opacity:1;fill-opacity:1"
     d="M 0.58244137,11.879765 C 0.37322626,11.776657 0.10153009,11.453975 0.06815203,11.268966 0.0534662,11.187564 0.04775405,9.6632091 0.05545835,7.8815094 L 0.06946618,4.6420556 0.18499177,4.4734859 C 0.32928405,4.2629413 0.56100108,4.1015795 0.79808238,4.0465454 1.067579,3.9839867 9.9075507,3.9897978 10.200977,4.0527266 c 0.149086,0.031973 0.308307,0.1120326 0.430044,0.2162352 0.36134,0.3092939 0.349196,0.1706 0.334117,3.81573 l -0.01342,3.2437952 -0.143819,0.204164 c -0.0791,0.11229 -0.238895,0.254359 -0.355101,0.315708 l -0.211283,0.111544 -4.7504488,-0.0011 c -4.2881568,-9.82e-4 -4.76584294,-0.0087 -4.90862683,-0.07905 l 0,1e-6 z"
     id="path4395"
     inkscape:connector-curvature="0" /><path
     style="fill:#e74c3c;fill-opacity:1"
     d="m 13.995874,10.828034 -1.941547,-1.1138058 0,-1.7156637 0,-1.7156636 1.941547,-1.1099724 1.941548,-1.1099723 0.01251,1.9554013 c 0.0069,1.0754707 0.0069,2.8482193 0,3.9394414 l -0.01251,1.9840401 -1.941548,-1.113805 z"
     id="path4397"
     inkscape:connector-curvature="0" /><path
     style="fill:#ff0000;fill-opacity:1"
     d="M 1.7713164,11.914043 C 1.0471833,11.8973 0.61048896,11.868062 0.54886061,11.832196 0.42651542,11.760994 0.21682434,11.535221 0.14723289,11.399767 0.10899031,11.32533 0.0934359,10.335918 0.0934359,7.9777549 c 0,-3.2312112 0.0024827,-3.3213167 0.09566978,-3.4720965 0.0526184,-0.085138 0.18554339,-0.2171211 0.29538894,-0.2932951 L 0.68421374,4.0738651 2.6539635,4.0438101 c 2.6240718,-0.040039 7.4355745,3.198e-4 7.6448555,0.064125 0.231078,0.070451 0.522187,0.3505806 0.579774,0.5579086 0.03066,0.1103784 0.04872,1.3761929 0.04889,3.4261488 l 2.88e-4,3.251096 -0.131833,0.173109 c -0.07251,0.09521 -0.227741,0.233993 -0.344962,0.308407 l -0.213148,0.135299 -3.669967,-0.0099 C 4.5493783,11.94455 2.3909337,11.92837 1.7713164,11.914043 Z"
     id="path4399"
     inkscape:connector-curvature="0" /><path
     style="fill:#ff0000;fill-opacity:1;stroke:none"
     d="m 13.995874,10.803953 -1.893608,-1.0861409 -0.0095,-1.7193664 -0.0095,-1.7193662 1.903072,-1.0828445 1.903071,-1.0828445 0.01252,1.96132 c 0.0069,1.078726 0.0069,2.8284844 0,3.8883512 l -0.01252,1.9270313 -1.893608,-1.08614 z"
     id="path4401"
     inkscape:connector-curvature="0" /><path
     style="fill:#ff0000;fill-opacity:1;stroke:none"
     d="m 4.0244702,11.913708 c -3.69455648,-0.0307 -3.50360843,-0.01061 -3.77115685,-0.396664 l -0.13590773,-0.196104 0,-3.3443414 c 0,-3.3045002 0.001179,-3.3459206 0.0989807,-3.4769439 0.0544394,-0.072932 0.1804906,-0.19857 0.28011379,-0.2791963 l 0.18113305,-0.1465933 4.77749761,0 c 5.3424832,0 4.8998162,-0.029381 5.2406062,0.3478328 l 0.168267,0.1862518 0.03187,1.1669189 c 0.01753,0.6418055 0.03187,2.15571 0.03187,3.3642325 l 0,2.1973139 -0.179506,0.198691 c -0.09873,0.109281 -0.260095,0.249566 -0.358593,0.311745 -0.204265,0.128947 0.375266,0.122859 -6.3651808,0.06686 z"
     id="path4403"
     inkscape:connector-curvature="0" /></svg>